<mxfile host="app.diagrams.net" modified="2023-06-11T03:21:36.473Z" agent="Mozilla/5.0 (Windows NT 10.0; Win64; x64) AppleWebKit/537.36 (KHTML, like Gecko) Chrome/112.0.0.0 Safari/537.36 OPR/98.0.0.0" etag="zfJXLAWNyH8jxXR0MM6_" version="21.3.6" type="device">
  <diagram name="Page-1" id="0HNgQMV01hYBzLpzsSq-">
    <mxGraphModel dx="1388" dy="886" grid="1" gridSize="10" guides="1" tooltips="1" connect="1" arrows="1" fold="1" page="1" pageScale="1" pageWidth="850" pageHeight="1100" math="0" shadow="0">
      <root>
        <mxCell id="0" />
        <mxCell id="1" parent="0" />
        <mxCell id="Zp9Q3emx2Ln3OkiNDyd_-2" value="TASKINI Mobile App" style="swimlane;whiteSpace=wrap;html=1;startSize=23;" vertex="1" parent="1">
          <mxGeometry x="90" y="230" width="1410" height="650" as="geometry" />
        </mxCell>
        <mxCell id="Zp9Q3emx2Ln3OkiNDyd_-13" value="Task List" style="swimlane;fontStyle=0;childLayout=stackLayout;horizontal=1;startSize=30;horizontalStack=0;resizeParent=1;resizeParentMax=0;resizeLast=0;collapsible=1;marginBottom=0;whiteSpace=wrap;html=1;" vertex="1" parent="Zp9Q3emx2Ln3OkiNDyd_-2">
          <mxGeometry x="90" y="260" width="220" height="120" as="geometry">
            <mxRectangle x="30" y="130" width="90" height="30" as="alternateBounds" />
          </mxGeometry>
        </mxCell>
        <mxCell id="Zp9Q3emx2Ln3OkiNDyd_-14" value="Task 1, Priority P1, Deadline D1" style="text;strokeColor=none;fillColor=none;align=left;verticalAlign=middle;spacingLeft=4;spacingRight=4;overflow=hidden;points=[[0,0.5],[1,0.5]];portConstraint=eastwest;rotatable=0;whiteSpace=wrap;html=1;" vertex="1" parent="Zp9Q3emx2Ln3OkiNDyd_-13">
          <mxGeometry y="30" width="220" height="30" as="geometry" />
        </mxCell>
        <mxCell id="Zp9Q3emx2Ln3OkiNDyd_-15" value="Task 2, Priority P2, Deadline D2" style="text;strokeColor=none;fillColor=none;align=left;verticalAlign=middle;spacingLeft=4;spacingRight=4;overflow=hidden;points=[[0,0.5],[1,0.5]];portConstraint=eastwest;rotatable=0;whiteSpace=wrap;html=1;" vertex="1" parent="Zp9Q3emx2Ln3OkiNDyd_-13">
          <mxGeometry y="60" width="220" height="30" as="geometry" />
        </mxCell>
        <mxCell id="Zp9Q3emx2Ln3OkiNDyd_-16" value="Task 3, Priority P3, Deadline D3" style="text;strokeColor=none;fillColor=none;align=left;verticalAlign=middle;spacingLeft=4;spacingRight=4;overflow=hidden;points=[[0,0.5],[1,0.5]];portConstraint=eastwest;rotatable=0;whiteSpace=wrap;html=1;" vertex="1" parent="Zp9Q3emx2Ln3OkiNDyd_-13">
          <mxGeometry y="90" width="220" height="30" as="geometry" />
        </mxCell>
        <mxCell id="Zp9Q3emx2Ln3OkiNDyd_-27" style="edgeStyle=orthogonalEdgeStyle;rounded=0;orthogonalLoop=1;jettySize=auto;html=1;" edge="1" parent="Zp9Q3emx2Ln3OkiNDyd_-2" source="Zp9Q3emx2Ln3OkiNDyd_-17" target="Zp9Q3emx2Ln3OkiNDyd_-29">
          <mxGeometry relative="1" as="geometry">
            <mxPoint x="645" y="505" as="targetPoint" />
          </mxGeometry>
        </mxCell>
        <mxCell id="Zp9Q3emx2Ln3OkiNDyd_-28" value="AI:&lt;br&gt;- Generate subtask list&lt;br&gt;- Generate a guide to execute each subtask&lt;br&gt;- Propose a duration for each subtask (can be adjusted / monitored)&lt;br&gt;- Generate a list of expertise / skills / difficulty required for each subtask" style="edgeLabel;html=1;align=center;verticalAlign=middle;resizable=0;points=[];" vertex="1" connectable="0" parent="Zp9Q3emx2Ln3OkiNDyd_-27">
          <mxGeometry x="-0.2" y="4" relative="1" as="geometry">
            <mxPoint x="-53" y="-10" as="offset" />
          </mxGeometry>
        </mxCell>
        <mxCell id="Zp9Q3emx2Ln3OkiNDyd_-17" value="Reordered List" style="swimlane;fontStyle=0;childLayout=stackLayout;horizontal=1;startSize=30;horizontalStack=0;resizeParent=1;resizeParentMax=0;resizeLast=0;collapsible=1;marginBottom=0;whiteSpace=wrap;html=1;" vertex="1" parent="Zp9Q3emx2Ln3OkiNDyd_-2">
          <mxGeometry x="530" y="265" width="210" height="120" as="geometry" />
        </mxCell>
        <mxCell id="Zp9Q3emx2Ln3OkiNDyd_-18" value="Task 2, Priority P2, Deadline D2" style="text;strokeColor=none;fillColor=none;align=left;verticalAlign=middle;spacingLeft=4;spacingRight=4;overflow=hidden;points=[[0,0.5],[1,0.5]];portConstraint=eastwest;rotatable=0;whiteSpace=wrap;html=1;" vertex="1" parent="Zp9Q3emx2Ln3OkiNDyd_-17">
          <mxGeometry y="30" width="210" height="30" as="geometry" />
        </mxCell>
        <mxCell id="Zp9Q3emx2Ln3OkiNDyd_-19" value="Task 3, Priority P3, Deadline D3" style="text;strokeColor=none;fillColor=none;align=left;verticalAlign=middle;spacingLeft=4;spacingRight=4;overflow=hidden;points=[[0,0.5],[1,0.5]];portConstraint=eastwest;rotatable=0;whiteSpace=wrap;html=1;" vertex="1" parent="Zp9Q3emx2Ln3OkiNDyd_-17">
          <mxGeometry y="60" width="210" height="30" as="geometry" />
        </mxCell>
        <mxCell id="Zp9Q3emx2Ln3OkiNDyd_-20" value="Task 1, Priority P1, Deadline D1" style="text;strokeColor=none;fillColor=none;align=left;verticalAlign=middle;spacingLeft=4;spacingRight=4;overflow=hidden;points=[[0,0.5],[1,0.5]];portConstraint=eastwest;rotatable=0;whiteSpace=wrap;html=1;" vertex="1" parent="Zp9Q3emx2Ln3OkiNDyd_-17">
          <mxGeometry y="90" width="210" height="30" as="geometry" />
        </mxCell>
        <mxCell id="Zp9Q3emx2Ln3OkiNDyd_-21" style="edgeStyle=orthogonalEdgeStyle;rounded=0;orthogonalLoop=1;jettySize=auto;html=1;entryX=0;entryY=0.5;entryDx=0;entryDy=0;" edge="1" parent="Zp9Q3emx2Ln3OkiNDyd_-2" source="Zp9Q3emx2Ln3OkiNDyd_-13">
          <mxGeometry relative="1" as="geometry">
            <mxPoint x="250.04000000000002" y="308.8200000000001" as="sourcePoint" />
            <mxPoint x="531.8" y="326.18" as="targetPoint" />
            <Array as="points">
              <mxPoint x="280" y="309" />
              <mxPoint x="280" y="325" />
              <mxPoint x="392" y="325" />
              <mxPoint x="392" y="326" />
            </Array>
          </mxGeometry>
        </mxCell>
        <mxCell id="Zp9Q3emx2Ln3OkiNDyd_-22" value="Reorder tasks by:&lt;br&gt;- First come, first served&lt;br&gt;- Shortest Job First&lt;br&gt;- Highest Priority First&lt;br&gt;- Shortest Remaining Time&lt;br&gt;- Round Robin&lt;br&gt;- Earliest Deadline First&lt;br&gt;- Manual Ordering" style="edgeLabel;html=1;align=center;verticalAlign=middle;resizable=0;points=[];" vertex="1" connectable="0" parent="Zp9Q3emx2Ln3OkiNDyd_-21">
          <mxGeometry x="0.1701" y="-3" relative="1" as="geometry">
            <mxPoint x="-28" y="-8" as="offset" />
          </mxGeometry>
        </mxCell>
        <mxCell id="Zp9Q3emx2Ln3OkiNDyd_-29" value="Task i" style="swimlane;fontStyle=0;childLayout=stackLayout;horizontal=1;startSize=30;horizontalStack=0;resizeParent=1;resizeParentMax=0;resizeLast=0;collapsible=1;marginBottom=0;whiteSpace=wrap;html=1;" vertex="1" parent="Zp9Q3emx2Ln3OkiNDyd_-2">
          <mxGeometry x="480" y="505" width="140" height="120" as="geometry" />
        </mxCell>
        <mxCell id="Zp9Q3emx2Ln3OkiNDyd_-30" value="subtask 1" style="text;strokeColor=none;fillColor=none;align=left;verticalAlign=middle;spacingLeft=4;spacingRight=4;overflow=hidden;points=[[0,0.5],[1,0.5]];portConstraint=eastwest;rotatable=0;whiteSpace=wrap;html=1;" vertex="1" parent="Zp9Q3emx2Ln3OkiNDyd_-29">
          <mxGeometry y="30" width="140" height="30" as="geometry" />
        </mxCell>
        <mxCell id="Zp9Q3emx2Ln3OkiNDyd_-31" value="subtask 2" style="text;strokeColor=none;fillColor=none;align=left;verticalAlign=middle;spacingLeft=4;spacingRight=4;overflow=hidden;points=[[0,0.5],[1,0.5]];portConstraint=eastwest;rotatable=0;whiteSpace=wrap;html=1;" vertex="1" parent="Zp9Q3emx2Ln3OkiNDyd_-29">
          <mxGeometry y="60" width="140" height="30" as="geometry" />
        </mxCell>
        <mxCell id="Zp9Q3emx2Ln3OkiNDyd_-32" value="subtask 3" style="text;strokeColor=none;fillColor=none;align=left;verticalAlign=middle;spacingLeft=4;spacingRight=4;overflow=hidden;points=[[0,0.5],[1,0.5]];portConstraint=eastwest;rotatable=0;whiteSpace=wrap;html=1;" vertex="1" parent="Zp9Q3emx2Ln3OkiNDyd_-29">
          <mxGeometry y="90" width="140" height="30" as="geometry" />
        </mxCell>
        <mxCell id="Zp9Q3emx2Ln3OkiNDyd_-33" value="Chatbot Assistant" style="rounded=1;whiteSpace=wrap;html=1;" vertex="1" parent="Zp9Q3emx2Ln3OkiNDyd_-2">
          <mxGeometry x="670" y="526" width="70" height="95" as="geometry" />
        </mxCell>
        <mxCell id="Zp9Q3emx2Ln3OkiNDyd_-34" style="edgeStyle=orthogonalEdgeStyle;rounded=0;orthogonalLoop=1;jettySize=auto;html=1;entryX=0;entryY=0.5;entryDx=0;entryDy=0;exitX=1.018;exitY=0.315;exitDx=0;exitDy=0;exitPerimeter=0;" edge="1" parent="Zp9Q3emx2Ln3OkiNDyd_-2" source="Zp9Q3emx2Ln3OkiNDyd_-31" target="Zp9Q3emx2Ln3OkiNDyd_-33">
          <mxGeometry relative="1" as="geometry" />
        </mxCell>
        <mxCell id="Zp9Q3emx2Ln3OkiNDyd_-37" value="&lt;font style=&quot;font-size: 16px;&quot;&gt;Configure Workspace&lt;br&gt;Options / Tools&lt;/font&gt;" style="rounded=1;whiteSpace=wrap;html=1;" vertex="1" parent="Zp9Q3emx2Ln3OkiNDyd_-2">
          <mxGeometry x="660" y="60" width="230" height="55" as="geometry" />
        </mxCell>
        <mxCell id="Zp9Q3emx2Ln3OkiNDyd_-41" value="" style="endArrow=none;html=1;strokeWidth=2;rounded=0;dashed=1;" edge="1" parent="Zp9Q3emx2Ln3OkiNDyd_-2">
          <mxGeometry width="50" height="50" relative="1" as="geometry">
            <mxPoint x="780" y="650" as="sourcePoint" />
            <mxPoint x="780" y="150" as="targetPoint" />
          </mxGeometry>
        </mxCell>
        <mxCell id="Zp9Q3emx2Ln3OkiNDyd_-44" value="" style="shape=internalStorage;whiteSpace=wrap;html=1;backgroundOutline=1;dx=90;dy=30;" vertex="1" parent="Zp9Q3emx2Ln3OkiNDyd_-2">
          <mxGeometry x="832" y="260.5" width="401" height="160.5" as="geometry" />
        </mxCell>
        <mxCell id="Zp9Q3emx2Ln3OkiNDyd_-45" value="Employee 1" style="text;strokeColor=none;fillColor=none;align=left;verticalAlign=middle;spacingLeft=4;spacingRight=4;overflow=hidden;points=[[0,0.5],[1,0.5]];portConstraint=eastwest;rotatable=0;whiteSpace=wrap;html=1;" vertex="1" parent="Zp9Q3emx2Ln3OkiNDyd_-2">
          <mxGeometry x="1143" y="286" width="80" height="30" as="geometry" />
        </mxCell>
        <mxCell id="Zp9Q3emx2Ln3OkiNDyd_-46" value="Employee 2" style="text;strokeColor=none;fillColor=none;align=left;verticalAlign=middle;spacingLeft=4;spacingRight=4;overflow=hidden;points=[[0,0.5],[1,0.5]];portConstraint=eastwest;rotatable=0;whiteSpace=wrap;html=1;" vertex="1" parent="Zp9Q3emx2Ln3OkiNDyd_-2">
          <mxGeometry x="1143" y="306" width="80" height="30" as="geometry" />
        </mxCell>
        <mxCell id="Zp9Q3emx2Ln3OkiNDyd_-47" value="Employee 3" style="text;strokeColor=none;fillColor=none;align=left;verticalAlign=middle;spacingLeft=4;spacingRight=4;overflow=hidden;points=[[0,0.5],[1,0.5]];portConstraint=eastwest;rotatable=0;whiteSpace=wrap;html=1;" vertex="1" parent="Zp9Q3emx2Ln3OkiNDyd_-2">
          <mxGeometry x="1143" y="329" width="80" height="30" as="geometry" />
        </mxCell>
        <mxCell id="Zp9Q3emx2Ln3OkiNDyd_-48" value="" style="endArrow=none;html=1;rounded=0;entryX=1;entryY=0.133;entryDx=0;entryDy=0;entryPerimeter=0;" edge="1" parent="Zp9Q3emx2Ln3OkiNDyd_-2" target="Zp9Q3emx2Ln3OkiNDyd_-49">
          <mxGeometry width="50" height="50" relative="1" as="geometry">
            <mxPoint x="1033" y="416" as="sourcePoint" />
            <mxPoint x="1033" y="256" as="targetPoint" />
          </mxGeometry>
        </mxCell>
        <mxCell id="Zp9Q3emx2Ln3OkiNDyd_-49" value="KEY RESULTS" style="text;strokeColor=none;fillColor=none;align=left;verticalAlign=middle;spacingLeft=4;spacingRight=4;overflow=hidden;points=[[0,0.5],[1,0.5]];portConstraint=eastwest;rotatable=0;whiteSpace=wrap;html=1;" vertex="1" parent="Zp9Q3emx2Ln3OkiNDyd_-2">
          <mxGeometry x="923" y="262" width="110" height="30" as="geometry" />
        </mxCell>
        <mxCell id="Zp9Q3emx2Ln3OkiNDyd_-50" value="Objective 1: 100M Revenue" style="text;strokeColor=none;fillColor=none;align=left;verticalAlign=middle;spacingLeft=4;spacingRight=4;overflow=hidden;points=[[0,0.5],[1,0.5]];portConstraint=eastwest;rotatable=0;whiteSpace=wrap;html=1;" vertex="1" parent="Zp9Q3emx2Ln3OkiNDyd_-2">
          <mxGeometry x="830" y="292" width="93" height="42" as="geometry" />
        </mxCell>
        <mxCell id="Zp9Q3emx2Ln3OkiNDyd_-51" value="Objective 2" style="text;strokeColor=none;fillColor=none;align=left;verticalAlign=middle;spacingLeft=4;spacingRight=4;overflow=hidden;points=[[0,0.5],[1,0.5]];portConstraint=eastwest;rotatable=0;whiteSpace=wrap;html=1;" vertex="1" parent="Zp9Q3emx2Ln3OkiNDyd_-2">
          <mxGeometry x="833" y="339" width="80" height="30" as="geometry" />
        </mxCell>
        <mxCell id="Zp9Q3emx2Ln3OkiNDyd_-52" value="Objective 3" style="text;strokeColor=none;fillColor=none;align=left;verticalAlign=middle;spacingLeft=4;spacingRight=4;overflow=hidden;points=[[0,0.5],[1,0.5]];portConstraint=eastwest;rotatable=0;whiteSpace=wrap;html=1;" vertex="1" parent="Zp9Q3emx2Ln3OkiNDyd_-2">
          <mxGeometry x="838" y="387" width="80" height="30" as="geometry" />
        </mxCell>
        <mxCell id="Zp9Q3emx2Ln3OkiNDyd_-56" value="" style="shape=link;html=1;rounded=0;width=45.55555555555556;entryX=0.996;entryY=0.61;entryDx=0;entryDy=0;entryPerimeter=0;" edge="1" parent="Zp9Q3emx2Ln3OkiNDyd_-2" target="Zp9Q3emx2Ln3OkiNDyd_-44">
          <mxGeometry width="100" relative="1" as="geometry">
            <mxPoint x="833" y="357.89" as="sourcePoint" />
            <mxPoint x="1313" y="356" as="targetPoint" />
          </mxGeometry>
        </mxCell>
        <mxCell id="Zp9Q3emx2Ln3OkiNDyd_-57" value="COMPLETED" style="text;strokeColor=none;fillColor=none;align=left;verticalAlign=middle;spacingLeft=4;spacingRight=4;overflow=hidden;points=[[0,0.5],[1,0.5]];portConstraint=eastwest;rotatable=0;whiteSpace=wrap;html=1;" vertex="1" parent="Zp9Q3emx2Ln3OkiNDyd_-2">
          <mxGeometry x="1043" y="264" width="110" height="30" as="geometry" />
        </mxCell>
        <mxCell id="Zp9Q3emx2Ln3OkiNDyd_-58" value="ASSIGNEE TO" style="text;strokeColor=none;fillColor=none;align=left;verticalAlign=middle;spacingLeft=4;spacingRight=4;overflow=hidden;points=[[0,0.5],[1,0.5]];portConstraint=eastwest;rotatable=0;whiteSpace=wrap;html=1;" vertex="1" parent="Zp9Q3emx2Ln3OkiNDyd_-2">
          <mxGeometry x="1133" y="264" width="110" height="30" as="geometry" />
        </mxCell>
        <mxCell id="Zp9Q3emx2Ln3OkiNDyd_-59" value="" style="endArrow=none;html=1;rounded=0;exitX=0.465;exitY=1.015;exitDx=0;exitDy=0;exitPerimeter=0;" edge="1" parent="Zp9Q3emx2Ln3OkiNDyd_-2">
          <mxGeometry width="50" height="50" relative="1" as="geometry">
            <mxPoint x="1134" y="419.5" as="sourcePoint" />
            <mxPoint x="1133" y="260.5" as="targetPoint" />
          </mxGeometry>
        </mxCell>
        <mxCell id="Zp9Q3emx2Ln3OkiNDyd_-61" value="Build a website" style="text;strokeColor=none;fillColor=none;align=left;verticalAlign=middle;spacingLeft=4;spacingRight=4;overflow=hidden;points=[[0,0.5],[1,0.5]];portConstraint=eastwest;rotatable=0;whiteSpace=wrap;html=1;" vertex="1" parent="Zp9Q3emx2Ln3OkiNDyd_-2">
          <mxGeometry x="933" y="298" width="100" height="30" as="geometry" />
        </mxCell>
        <mxCell id="Zp9Q3emx2Ln3OkiNDyd_-64" value="Employee 4" style="text;strokeColor=none;fillColor=none;align=left;verticalAlign=middle;spacingLeft=4;spacingRight=4;overflow=hidden;points=[[0,0.5],[1,0.5]];portConstraint=eastwest;rotatable=0;whiteSpace=wrap;html=1;" vertex="1" parent="Zp9Q3emx2Ln3OkiNDyd_-2">
          <mxGeometry x="1143" y="353" width="80" height="30" as="geometry" />
        </mxCell>
        <mxCell id="Zp9Q3emx2Ln3OkiNDyd_-65" value="Employee 5" style="text;strokeColor=none;fillColor=none;align=left;verticalAlign=middle;spacingLeft=4;spacingRight=4;overflow=hidden;points=[[0,0.5],[1,0.5]];portConstraint=eastwest;rotatable=0;whiteSpace=wrap;html=1;" vertex="1" parent="Zp9Q3emx2Ln3OkiNDyd_-2">
          <mxGeometry x="1143" y="376" width="80" height="30" as="geometry" />
        </mxCell>
        <mxCell id="Zp9Q3emx2Ln3OkiNDyd_-66" value="Employee 6" style="text;strokeColor=none;fillColor=none;align=left;verticalAlign=middle;spacingLeft=4;spacingRight=4;overflow=hidden;points=[[0,0.5],[1,0.5]];portConstraint=eastwest;rotatable=0;whiteSpace=wrap;html=1;" vertex="1" parent="Zp9Q3emx2Ln3OkiNDyd_-2">
          <mxGeometry x="1144" y="395" width="80" height="30" as="geometry" />
        </mxCell>
        <mxCell id="Zp9Q3emx2Ln3OkiNDyd_-67" value="80%" style="text;strokeColor=none;fillColor=none;align=left;verticalAlign=middle;spacingLeft=4;spacingRight=4;overflow=hidden;points=[[0,0.5],[1,0.5]];portConstraint=eastwest;rotatable=0;whiteSpace=wrap;html=1;" vertex="1" parent="Zp9Q3emx2Ln3OkiNDyd_-2">
          <mxGeometry x="1063" y="299" width="40" height="30" as="geometry" />
        </mxCell>
        <mxCell id="Zp9Q3emx2Ln3OkiNDyd_-68" value="90%" style="text;strokeColor=none;fillColor=none;align=left;verticalAlign=middle;spacingLeft=4;spacingRight=4;overflow=hidden;points=[[0,0.5],[1,0.5]];portConstraint=eastwest;rotatable=0;whiteSpace=wrap;html=1;" vertex="1" parent="Zp9Q3emx2Ln3OkiNDyd_-2">
          <mxGeometry x="1063" y="341" width="40" height="30" as="geometry" />
        </mxCell>
        <mxCell id="Zp9Q3emx2Ln3OkiNDyd_-69" value="54%" style="text;strokeColor=none;fillColor=none;align=left;verticalAlign=middle;spacingLeft=4;spacingRight=4;overflow=hidden;points=[[0,0.5],[1,0.5]];portConstraint=eastwest;rotatable=0;whiteSpace=wrap;html=1;" vertex="1" parent="Zp9Q3emx2Ln3OkiNDyd_-2">
          <mxGeometry x="1063" y="386" width="40" height="30" as="geometry" />
        </mxCell>
        <mxCell id="Zp9Q3emx2Ln3OkiNDyd_-70" value="Build a mobile app" style="text;strokeColor=none;fillColor=none;align=left;verticalAlign=middle;spacingLeft=4;spacingRight=4;overflow=hidden;points=[[0,0.5],[1,0.5]];portConstraint=eastwest;rotatable=0;whiteSpace=wrap;html=1;" vertex="1" parent="Zp9Q3emx2Ln3OkiNDyd_-2">
          <mxGeometry x="933" y="336" width="100" height="47" as="geometry" />
        </mxCell>
        <mxCell id="Zp9Q3emx2Ln3OkiNDyd_-72" value="Build a platform" style="text;strokeColor=none;fillColor=none;align=left;verticalAlign=middle;spacingLeft=4;spacingRight=4;overflow=hidden;points=[[0,0.5],[1,0.5]];portConstraint=eastwest;rotatable=0;whiteSpace=wrap;html=1;" vertex="1" parent="Zp9Q3emx2Ln3OkiNDyd_-2">
          <mxGeometry x="933" y="376" width="100" height="47" as="geometry" />
        </mxCell>
        <mxCell id="Zp9Q3emx2Ln3OkiNDyd_-74" value="" style="shape=link;html=1;rounded=0;width=44.07407407407407;entryX=0.998;entryY=0.463;entryDx=0;entryDy=0;entryPerimeter=0;" edge="1" parent="Zp9Q3emx2Ln3OkiNDyd_-2" target="Zp9Q3emx2Ln3OkiNDyd_-44">
          <mxGeometry width="100" relative="1" as="geometry">
            <mxPoint x="1133" y="334" as="sourcePoint" />
            <mxPoint x="1223" y="334.74" as="targetPoint" />
          </mxGeometry>
        </mxCell>
        <mxCell id="Zp9Q3emx2Ln3OkiNDyd_-76" value="" style="shape=link;html=1;rounded=0;width=44.07407407407407;" edge="1" parent="Zp9Q3emx2Ln3OkiNDyd_-2">
          <mxGeometry width="100" relative="1" as="geometry">
            <mxPoint x="1134" y="378" as="sourcePoint" />
            <mxPoint x="1232" y="379" as="targetPoint" />
          </mxGeometry>
        </mxCell>
        <mxCell id="Zp9Q3emx2Ln3OkiNDyd_-80" value="Employee 1&lt;br&gt;KPI Charts" style="strokeWidth=2;html=1;shape=mxgraph.flowchart.multi-document;whiteSpace=wrap;" vertex="1" parent="Zp9Q3emx2Ln3OkiNDyd_-2">
          <mxGeometry x="1323" y="236" width="91" height="75" as="geometry" />
        </mxCell>
        <mxCell id="Zp9Q3emx2Ln3OkiNDyd_-81" value="Employee 3&lt;br&gt;KPI Charts" style="strokeWidth=2;html=1;shape=mxgraph.flowchart.multi-document;whiteSpace=wrap;" vertex="1" parent="Zp9Q3emx2Ln3OkiNDyd_-2">
          <mxGeometry x="1323" y="318.5" width="91" height="75" as="geometry" />
        </mxCell>
        <mxCell id="Zp9Q3emx2Ln3OkiNDyd_-82" value="Employee 5&lt;br&gt;KPI Charts" style="strokeWidth=2;html=1;shape=mxgraph.flowchart.multi-document;whiteSpace=wrap;" vertex="1" parent="Zp9Q3emx2Ln3OkiNDyd_-2">
          <mxGeometry x="1323" y="401" width="91" height="75" as="geometry" />
        </mxCell>
        <mxCell id="Zp9Q3emx2Ln3OkiNDyd_-83" value="" style="endArrow=classic;html=1;rounded=0;exitX=1;exitY=0.5;exitDx=0;exitDy=0;entryX=-0.02;entryY=0.6;entryDx=0;entryDy=0;entryPerimeter=0;" edge="1" parent="Zp9Q3emx2Ln3OkiNDyd_-2" source="Zp9Q3emx2Ln3OkiNDyd_-45" target="Zp9Q3emx2Ln3OkiNDyd_-80">
          <mxGeometry width="50" height="50" relative="1" as="geometry">
            <mxPoint x="1283" y="366" as="sourcePoint" />
            <mxPoint x="1333" y="316" as="targetPoint" />
          </mxGeometry>
        </mxCell>
        <mxCell id="Zp9Q3emx2Ln3OkiNDyd_-84" value="" style="endArrow=classic;html=1;rounded=0;exitX=1;exitY=0.5;exitDx=0;exitDy=0;entryX=0.007;entryY=0.616;entryDx=0;entryDy=0;entryPerimeter=0;" edge="1" parent="Zp9Q3emx2Ln3OkiNDyd_-2" source="Zp9Q3emx2Ln3OkiNDyd_-47" target="Zp9Q3emx2Ln3OkiNDyd_-81">
          <mxGeometry width="50" height="50" relative="1" as="geometry">
            <mxPoint x="1253" y="356" as="sourcePoint" />
            <mxPoint x="1413" y="366" as="targetPoint" />
          </mxGeometry>
        </mxCell>
        <mxCell id="Zp9Q3emx2Ln3OkiNDyd_-85" value="" style="endArrow=classic;html=1;rounded=0;exitX=1;exitY=0.5;exitDx=0;exitDy=0;entryX=0.089;entryY=0.501;entryDx=0;entryDy=0;entryPerimeter=0;" edge="1" parent="Zp9Q3emx2Ln3OkiNDyd_-2" source="Zp9Q3emx2Ln3OkiNDyd_-65" target="Zp9Q3emx2Ln3OkiNDyd_-82">
          <mxGeometry width="50" height="50" relative="1" as="geometry">
            <mxPoint x="1260" y="391" as="sourcePoint" />
            <mxPoint x="1463" y="416" as="targetPoint" />
          </mxGeometry>
        </mxCell>
        <mxCell id="Zp9Q3emx2Ln3OkiNDyd_-6" value="&lt;font style=&quot;font-size: 14px;&quot;&gt;Assign Tasks through the Company&#39;s Task Management Software&lt;/font&gt;" style="rounded=1;whiteSpace=wrap;html=1;" vertex="1" parent="1">
          <mxGeometry x="770" y="30" width="140" height="90" as="geometry" />
        </mxCell>
        <mxCell id="Zp9Q3emx2Ln3OkiNDyd_-7" style="edgeStyle=orthogonalEdgeStyle;rounded=0;orthogonalLoop=1;jettySize=auto;html=1;entryX=1;entryY=0.5;entryDx=0;entryDy=0;" edge="1" parent="1" source="Zp9Q3emx2Ln3OkiNDyd_-4" target="Zp9Q3emx2Ln3OkiNDyd_-6">
          <mxGeometry relative="1" as="geometry" />
        </mxCell>
        <mxCell id="Zp9Q3emx2Ln3OkiNDyd_-8" style="edgeStyle=orthogonalEdgeStyle;rounded=0;orthogonalLoop=1;jettySize=auto;html=1;entryX=1;entryY=0.5;entryDx=0;entryDy=0;" edge="1" parent="1" source="Zp9Q3emx2Ln3OkiNDyd_-6" target="Zp9Q3emx2Ln3OkiNDyd_-3">
          <mxGeometry relative="1" as="geometry" />
        </mxCell>
        <mxCell id="Zp9Q3emx2Ln3OkiNDyd_-43" style="edgeStyle=orthogonalEdgeStyle;rounded=0;orthogonalLoop=1;jettySize=auto;html=1;entryX=1;entryY=0.5;entryDx=0;entryDy=0;" edge="1" parent="1" source="Zp9Q3emx2Ln3OkiNDyd_-4" target="Zp9Q3emx2Ln3OkiNDyd_-37">
          <mxGeometry relative="1" as="geometry">
            <mxPoint x="920" y="318" as="targetPoint" />
            <Array as="points">
              <mxPoint x="1280" y="318" />
            </Array>
          </mxGeometry>
        </mxCell>
        <mxCell id="Zp9Q3emx2Ln3OkiNDyd_-91" style="edgeStyle=orthogonalEdgeStyle;rounded=0;orthogonalLoop=1;jettySize=auto;html=1;" edge="1" parent="1" source="Zp9Q3emx2Ln3OkiNDyd_-4">
          <mxGeometry relative="1" as="geometry">
            <mxPoint x="1260" y="490" as="targetPoint" />
            <Array as="points">
              <mxPoint x="1370" y="340" />
              <mxPoint x="1340" y="340" />
              <mxPoint x="1340" y="490" />
            </Array>
          </mxGeometry>
        </mxCell>
        <mxCell id="Zp9Q3emx2Ln3OkiNDyd_-93" value="Check OKR Table&lt;br&gt;via the Mobile App" style="edgeLabel;html=1;align=center;verticalAlign=middle;resizable=0;points=[];" vertex="1" connectable="0" parent="Zp9Q3emx2Ln3OkiNDyd_-91">
          <mxGeometry x="0.1661" y="-2" relative="1" as="geometry">
            <mxPoint x="5" y="57" as="offset" />
          </mxGeometry>
        </mxCell>
        <mxCell id="Zp9Q3emx2Ln3OkiNDyd_-95" style="edgeStyle=orthogonalEdgeStyle;rounded=0;orthogonalLoop=1;jettySize=auto;html=1;" edge="1" parent="1" source="Zp9Q3emx2Ln3OkiNDyd_-4" target="Zp9Q3emx2Ln3OkiNDyd_-88">
          <mxGeometry relative="1" as="geometry">
            <Array as="points">
              <mxPoint x="1700" y="75" />
            </Array>
          </mxGeometry>
        </mxCell>
        <mxCell id="Zp9Q3emx2Ln3OkiNDyd_-4" value="&lt;p style=&quot;line-height: 120%;&quot;&gt;&lt;font style=&quot;font-size: 20px;&quot;&gt;Manager&lt;/font&gt;&lt;/p&gt;" style="whiteSpace=wrap;html=1;strokeWidth=2;" vertex="1" parent="1">
          <mxGeometry x="1260" y="47.5" width="120" height="55" as="geometry" />
        </mxCell>
        <mxCell id="Zp9Q3emx2Ln3OkiNDyd_-11" style="edgeStyle=orthogonalEdgeStyle;rounded=0;orthogonalLoop=1;jettySize=auto;html=1;" edge="1" parent="1" source="Zp9Q3emx2Ln3OkiNDyd_-3" target="Zp9Q3emx2Ln3OkiNDyd_-13">
          <mxGeometry relative="1" as="geometry">
            <mxPoint x="340" y="320" as="targetPoint" />
            <Array as="points">
              <mxPoint x="140" y="340" />
              <mxPoint x="210" y="340" />
            </Array>
          </mxGeometry>
        </mxCell>
        <mxCell id="Zp9Q3emx2Ln3OkiNDyd_-12" value="Fill tasks with&lt;br&gt;deadlines &amp;amp; priorities" style="edgeLabel;html=1;align=center;verticalAlign=middle;resizable=0;points=[];" vertex="1" connectable="0" parent="Zp9Q3emx2Ln3OkiNDyd_-11">
          <mxGeometry x="-0.6687" y="-2" relative="1" as="geometry">
            <mxPoint x="72" y="240" as="offset" />
          </mxGeometry>
        </mxCell>
        <mxCell id="Zp9Q3emx2Ln3OkiNDyd_-40" style="edgeStyle=orthogonalEdgeStyle;rounded=0;orthogonalLoop=1;jettySize=auto;html=1;entryX=0;entryY=0.75;entryDx=0;entryDy=0;" edge="1" parent="1" source="Zp9Q3emx2Ln3OkiNDyd_-3" target="Zp9Q3emx2Ln3OkiNDyd_-37">
          <mxGeometry relative="1" as="geometry">
            <Array as="points">
              <mxPoint x="200" y="330" />
              <mxPoint x="690" y="330" />
              <mxPoint x="690" y="331" />
            </Array>
          </mxGeometry>
        </mxCell>
        <mxCell id="Zp9Q3emx2Ln3OkiNDyd_-3" value="&lt;font style=&quot;font-size: 22px;&quot;&gt;Employee&lt;/font&gt;" style="whiteSpace=wrap;html=1;" vertex="1" parent="1">
          <mxGeometry x="100" y="45" width="130" height="60" as="geometry" />
        </mxCell>
        <mxCell id="Zp9Q3emx2Ln3OkiNDyd_-38" value="" style="endArrow=none;html=1;strokeWidth=2;rounded=0;dashed=1;" edge="1" parent="1">
          <mxGeometry width="50" height="50" relative="1" as="geometry">
            <mxPoint x="110" y="380" as="sourcePoint" />
            <mxPoint x="1520" y="380" as="targetPoint" />
          </mxGeometry>
        </mxCell>
        <mxCell id="Zp9Q3emx2Ln3OkiNDyd_-96" style="edgeStyle=orthogonalEdgeStyle;rounded=0;orthogonalLoop=1;jettySize=auto;html=1;startArrow=classic;startFill=1;" edge="1" parent="1" source="Zp9Q3emx2Ln3OkiNDyd_-88">
          <mxGeometry relative="1" as="geometry">
            <mxPoint x="1270" y="650" as="targetPoint" />
            <Array as="points">
              <mxPoint x="1700" y="770" />
              <mxPoint x="1274" y="770" />
              <mxPoint x="1274" y="690" />
              <mxPoint x="1270" y="690" />
            </Array>
          </mxGeometry>
        </mxCell>
        <mxCell id="Zp9Q3emx2Ln3OkiNDyd_-88" value="" style="shape=image;verticalLabelPosition=bottom;labelBackgroundColor=default;verticalAlign=top;aspect=fixed;imageAspect=0;image=data:image/png,AAAAIGZ0eXBhdmlmAAAAAGF2aWZtaWYxbWlhZk1BMUIAAADybWV0YQAAAAAAAAAoaGRscgAAAAAAAAAAcGljdAAAAAAAAAAAAAAAAGxpYmF2aWYAAAAADnBpdG0AAAAAAAEAAAAeaWxvYwAAAABEAAABAAEAAAABAAABGgAAaLgAAAAoaWluZgAAAAAAAQAAABppbmZlAgAAAAABAABhdjAxQ29sb3IAAAAAamlwcnAAAABLaXBjbwAAABRpc3BlAAAAAAAAA4QAAAJYAAAAEHBpeGkAAAAAAwgICAAAAAxhdjFDgQQMAAAAABNjb2xybmNseAABAA0ABoAAAAAXaXBtYQAAAAAAAAABAAEEAQKDBAAAaMBtZGF0EgAKChkmeDlfggIaDQgyptEBRGwAccccQPaGTmndPCQr7R5aa+jhisqXa7qn9FBG/LKzvx2qIWJvyxaDo9TDZbm56slx6G1mSTHD/kFRWR+ELrkATtA8iD8d664CGtBfTCMB0HdRSyfSwjWMSk4Ajsi9h0rUkRbpEPb1Ti9D1Y/6VTzqF6ip+3qJ8AgkTMag5sVQbo9WEZLB3Ttsu+f2NKK9ZS/w8vJT7nxIkt8dilN9+HiV3d1AR/8KXhlrc+nqY7CBDoaFn3KcWWtOBrNzK+bZ8+cXp0Xc6Kzvf+9DsFjieKojnB23QwVKkv8z/29vu18+6f31RF5Ip/XxDXRhiFa48rY0TOyDDmohw/mZ6aFyNA4keuMZUSX9KiGKXwVdnsbMSnvqfiDmmdHUp5fZ2CxKgUDwT6ugAlrlpIQ8xQb0nkxqrFcaXfTeSyOHSo93UOBWXVKY97Yg3wFcCtJGWIvVwAYEB2zk1J7sKV1ZeaXtoP7JTwW3oAwBK3C2WEsdm4f6DDgPzlQqHS9O3Ir2f7gNF3kpjCEPQdXMJtTPb+r2pGWOqdxsxEalg29Tsyzx1L57f0RgH/sB8kuUoDstrkxMjf6qzuS9ro5hkmuWbUTNEq94N0BbwKXIeDXC3L7/T7iYVnEJd2CoEZ9j2ChNnNYbiedCLJYqsNCmmnvlmgFXiwJJzOAceaXXB62ygb7hKgtQmbhGBTHQdVNsT3nho6NutRXj6tU1NKb/U5WVttdKbpDbPEE1+zkTSIOdHaOTWpZRCR2B2D1fVxRTQsua7LDlKHjAHjIyIG3SJMaYd6+Szi/oIjOOT/o4Ak3kOL/z7ErprF/q0QVJl6OUAbzlB35/BQUfOlfPcTN0a3GxixcPeP0L3v9idOi63Rvf/FHyD7cdrvZYukpoNfzd+xMTPzd0/ltJ+eRY+gtH0ptQkrywTWd0AC0v1RlUG0aLeANsSuIiM5wZNSySPx3xxcGp5TrqwYdPjUytj4C3sZRcacT4LxBMJ6zlvljO63f5NFQF2AuUvRzVZPUd/MheAfjOVpmqIIlP1Ab7IqVbAQt+7P6JjlvaOzQ591djvGRuBEyat9El9YsQXnOvc9TqRgNHVxO2jMWbvJ1fPU/ArjmAWDTuANvV+RpGnMIszx+uLMHVwdFFx7qbQj36Q8Hyk2czVaOEo38oVfimiD8Ymz55N/C47ZgOyqqmEctmgcxfDv8UlrHfESGQiNV1uXIU3ZLsbvVnv2634VFZTy1eZDNS17VrC9XxiC+AbygNt2zaPzyIKxC25xB0JRIE+3U+sN+fAMQkZ7UZv+TIRFhs9EhOlMsEIJpmiCFumt2Fulk/PP/S+QMH4U0gWmY7vEQrMgddq9vN2AF6grGehFHq1tNQZDSGDKkNDKKzgELdKZmkBWdUXulfCIY0SwqsqtmjSsj5n9u9Zs8rnWb/aLuixQmE4SSEZm7HmT0oqONUgKRJ+0M2zSsenk8WpzTR61vmIYaFzFQCn7eOXHNAgleHGjorIOOK0CcqMVDk8eJvZ3NkJVpRYtwahXPLeN2CVel564H/ZEICu/ot7hoD4i4J10SDldZIOw/exfDygL5HFdZPTix9xoPzff9yh+E/b4WUmhigQIw8Na4k83sACSqEcamF27fDnjIHIZTX37XrUzHgj5zh0INymVljJO46TdING1fn0Th8A36oe9YONNO9yya2cqlCuv/3DMoJrvM701jDnw4yU1FD2yEjbCF3RorIlH+qYtAYZE9xfzjdTTsc8aX/lfoCF1neWQScrxm2sHwuyXdlxlRFaLjF0coZ9gxMBv5f1wfqrAzJwnZBPEO5iSbWteO7/7qTOm4nAd21LgSZnG1NwBVsDO8foBpI966P4xbWNtJYxR4hwDmH1PqBNJTl5rakWkkQEeJOy5FN1rof7pclxaEboMZ8zLLG8d8IUfeKdws1kInHYfJMoL35ZN3ZGf4vsxGDAKTUD2HsICY41bt/5tZLI/MOc8lRJSh4FCIsBj1FKW36sdJUnQC77QkUS1tVRtQGXKPeDMUI+01zdD0OGZlQGUBtnoViR+BvJCXAW8S8kj5QhXTeer5hKDEm0MvODbMmHiXavga74iHp4UNlzJCdKcXCN2sc18fLDALTKRii6r9bWS6D21NcjLnBwvi4VpFXYIr93mSK/83P70PXLD50v6WVL5TkPF997N+/3Y7TsaowSrOxE6KtFkijMdMH53EwQtwZgz33J6pgkK7nQFmSDhF7ozRJC/QkeRVzX/1riEzD0h9WWJ00B5SheGroeh9SJD8vFQNzWqo7dkf5EX1ZPrQy8huos0Ap2+jyYSJPNB2bIc4Ijkpm2Ulpth4oq48Jj6R/AH8Vl4TEgMODw1Lq+SqKB76T5sKJUoP7smHjLmdqqsiGI3eDp9bnXLh/I+ycw9Ct+siLFAtfm2E2jV3xEh+QTfpZ8IaTpLiG4jXH/H0eASHxTAS4HdBbKfOTvoqBTYxy8D9wSINbId31tK9SHSWrN57XIEVXioMu4jitUrYzLsr+kYH+eWpx9JIE9AaVLADZfQ8+mOXjper7bILmomll5bZRWsNHbo+N86eqfWV6X5/Indey81/VK9zHimv0pDyiduqwwUqfFQRPIixmjwaqwKN/JPglwHQVtFd5MsGajPLcJ45ylZDj/zxEC2GyKJ/BBHi7CROD66ekPgxL2QUh4dVX6vWB0Nb096mvTj8qeBMJcYjIWNhDlD3EqumEfrT5FBCzYicT/SWQ9yQFoYiIwUDooniRw4T8irxCLqPtGEa44VL0rFESvxVyOkW5ltV4eTnwQ6tfCpMmi0GQq8IIudhyZo7l5Pi7Co69EE4vBUNTslb4hZUCXTB9rgWC3QAFe5BoJydThSF0cLraynNSioyU3vOaLh23Xxz/yA9Es5rRNHgwPZJUnk+NVpKJwx582+rv4sMx2tGlUIY3bffyz0setHHTi/b4VhjoJZ0yKrabQJBWi6CyoDaHVnbJJ3lERtcI6ZG0yn9S0ZrIwLvt7KNa6p4KMswgvT3H33DCbFDalGJ0eUvwhmIlO02FctYgXy+Wdh4NUnjgIJAyJPKo85XS57+1gqGWHtBG41gsah3tyEiX980k863z4UICkKkSPi3WIivAsmtTfEoUekzbdT983kG8BEhOGxblbz7lRWAaPw33z0WwpzC5lDZLxfKlfM9iK6fk2/6qj0tuZpcGfEsGOm7j7t9kfLmHHOF/yd+a0RnM+Xdp4RXk2AEQjTpXyfK45HhKt5IQj0+dHO4GZdtMKM/q+bXTAfy3uDbOT8EhaKvFBsSRyIoNm14+0H7n6mXAMiBUBJ9kzdwSwRiFBP7po08OU7zNWqVcitKHMHdB66NlG3FKTxz+BRDtFJqVZbxmo44kB7w1PJGITSyxg/RQfCu7EvhtqAjUUAHR0/f950xjnLi4Px7ngxZ805sfTvn7lHecURIIF9KAXNnhUwOJXYi+FqWjQmYjXcsL2ysmaVGR2nTVgnVUz2TfPEJcYnHOrFuBYduJXFr7f2AKLq7tV6rxC+kMDXjVOPzO8zauiNjqaqeVJRcLNz0YWNtHjdlUMCRJHv0xSEdWzh4gFlSA2UD59AWO3vfOJ2Y4RIC0Tr8SRN1uvpI7P0eNzUR8StVMRGgRSMXvfipfTfH+6TkprDWaU3aRg009Vd4//FPIDEUv3POh31zQz6UHsZPRxoqSI889g5rlUGpO7Xi2/31jwM5qCkFes9UlR4eR+4kiJomvHPi+iEzAMpl2fJ80jGqV1RbGt33PHMgIXKil2jDN0yE5CFNToUhRLEMV8gffAVFA36UjP4qmcHT5fD4fr0YAaIfv7550AFhRrgwdziWatwI5Z+c0sB42RygfihIugxaYP0862I19hXAaZMgbAKdpAGVD/2/d0MSzibscwl2UFXH7mNyuQZ+ZQHNETvkkjhRepkfEU/yTdwmVOZ4V4Gbxf67w9koUp63lv2gwoAgqXdetvshjXXh04ojkb7rsBOZUK2zPQ1Qf/Vfr3YXLemLqEV/Goi5oZNlAL2Egt8TRj5w+UOyXfHS8X3133XvgxUFYY+h/4pMMPh5S3laA3jcVuiFxwFIk/LxJ2Rw0IVD5KhGP+UvAZ60VtL3028Q3MQpu/BqgI78c5NXqRU5n8tT1F8yugaXY55YAJNkCz6QIiS2zJ1Qn60AwP5kjtpxSs7yPdMnHQce+8CfXD02Fqj4nSB77gcP/9GX2S+L4GSV9KJlYGiE/qyoS4OpqtFQsHbUXcIZIizxRq5P21+0dIg5IsN/ou1g8yo8PvoVzztnbCsYy0UbzOkA6CFGqUDGXXwxapvVVLq8e/8rFeoFMr/VQXDCYiDttwPeRTL7nrr9xT0GcOlsIf6+f32uFmcVWmW3ZnPAxfQlM+yFea4Ld8HCOL+yAJIkttFtAExlEfccjR0w4w+KelCyIlg9BjgJvl0RenBFj1bOPAYlMZg1ZRU/2zv5zMvWJ6YHHUl0eg/ptJojAx2SgU4cHRFs7rjeRGYbOxr2Wjr0ON4aCenKBzngp04hz+lxkS1GzSXU6r/jKrX0SP1BOqxzpozz6voplFVkzfKxcAzq7RNolphpM1M7pkNLLdam8lQ7hQxsMZnk+0oHURVL6vFWXAPkv7mZPzMUE5vxGJAE+czpiY96lwrR1e3BImqEZwICUpffEMX2l57/DLMGHQZCIpWq1LTLRACOeloumKqQ/kph14pwpgQO+nV8qSBArdxf6snuCXCO3Has50FC/PT/tHkSYtJaTjh7BPVbcs5P9RU5QeI+ajPHP7nJXEIZ2qluBfp+fZKaL7jWijVqBZvVifJfv/nJyTYWM0rmIQgMAapJ8q/CE1Wjdo2xpo6uzZ3KMQFzDH/D5i9p5r2+PSM7gkYdeMqfhV/GGgKbHFEcZNgXku30O4Zn3uobqZ0IjjdVUIvaD+ef4JpCtslQzoO8brjcT8P+XLBnyYsUje/RXxSGC20tR0+izy0zilm1MavGcDUxBNNdPGBre3sRSl/jb/GCJKcWNEW5RbUe55RYiY0pM4AbIp53xnPMug79C8eXCOrY0Bzjb+jyItc0LRH0Bme9S4ICcKn8mhgTBP35zGToBpvMyhvUu+65ddSy9e9Bm6gSz0w7k9X0odTztdQaCLFCRPo0egVqFHklvD9geKhteQ2XJ3jaoDjt0crlUJuEnD4Ce1H2ey1k37V/HMgXEOTIYrRO9o9phW7E/2r7mpB2GJlAGXucjZJMG5KwsL3i0n3m3efOAsf2ZaAwvxC1cFFs5n0IMF3XWQahab0wfTYgFOWLEU70VWBX0J4jSz4Rof4gX23aEvR/JrQLa0mGi/dxN1FQJXX1KKZtmXmoKx97JqHq2Mp1iX7e/2pAEaZOBYK3FiSE7K2Ize+kmj3KUZpxYc1c8mPKKmo07JPKO4HSrBfKuXdWc9YTTXhJ5VB9zjWbQ58WoFUqqU9wZz6x/TRBWRGUlwAEWS0jrZ86JMb10kposDLwvGn1uODvvbfUZhg4dk8U+EP/WBIjkmIFMQCBtMTnU0sduvFZxsUsilkIYHySygfoXOqrEzShoUjnQ6AG15J0srROwP6vLL2G+rOetvpWGCg3LcAk/FYW3RV5UyfwDemVGv2krkICj5azaMuEzDQWbpCeGl4ZGydIuG8i9O4KxC49SUrcOFXrucNtmTGzuuxiHVYS8XtoYUVF991P56/bNmi07+igeDLgGZkUwY2ngXyfVaBsSYgq1umllNGfp03bMt1P6PXLhDsC0ORUWa8H3dSBO+qJQG3EF0qb8cGlHiSSMG+vvpjBtuRw+gHbh3V8qbZOK2qtF072IXEBL6hLw3xbfhYQrk/+a/x9ycf42s4jiFesryIsso66n0zektFEthFiok3L3RmXYc1nMMf16ZJONTD5cerRejunrC6uUX5XUyF1wDr334mYTmnCLzt9U8OGJ0cCsx9T195sXXpPzaN+fAwmpufi95SiS8JDK7cdYoi7hoTUFCYW+MFNkPAyRCD6E+DHjiURt5QUU8qfh5b8GuG1LKr8QUhBDruyjspDHNsIaik2jSay7Xaq2/4DFVCA19wErdK0nguZ2zC1CPaUgN0Qssntl5F/GhFDKXrcwu6wP5vWtPaxMc43vHBNkssXh2zLNi06KH4jTkv+qrL7+vGbgtsL9Iz9ZM3cqsT7dbRnw0047/8F3PtlWyZHFlvV1FZnGEnhiifw0SQM9z1n71A74ImvZQOsy5fLUo/+6e1MuCGnmzUQnDwfQSuccKEcIG/tw48EogRRaQG/XkH/HfEbINmVERsPplzkcrDjBeg+ZVKmwLemwVHG2CfDlkY7cbrHcMeJChrQd6i71fYHMQdgQqvY8Hfn+gF+HOLg+uPdIOja5gzSjE1S+C99s3mUWTfZUiRYFzi7Q1w++xuvhHn1o2caNshwbOnkVBBZz27Nr0x/8frIfcT/oDO57n4LByCXyj5kcEqpI9g2Bzh3WaEH35QPqLRzTeWA04jBDZgX1aEVThgMG5u80cO769C3bTG+WSHDPRgvfYroMbVdZIgotgl+TXf/z9Wz+8jJiyK8ni9XOnPDK5PTnp4t95fXk3pL8wpZuVddlCT2zQZc8bJhrH7vXDc6xEP9H2jzapmCi6waWvzYRox1BeTD6MYWG6wD8OWQ3ev0b8CaQORn8UUkZPQcqMfMQ4KfP4cpHd0dZZQ3aVqIop3Q0hMSq3jHNo1xMQtybQttm4q5hJQGc8PD8f7ztOu3B5krJxQJK8vcEd+0ZEeC6X/4BCGt3wps2GqLhN3S0FUYlzP+VY5vrGoUNW+zmPkIdSSTHOiDob8hN47ouee5vIBedGRSyVVxkKS0OkwmgEl2lSTWdVZ0xbE5i8PZ+S6ih9D4Thq7dakpyfLz2y12ml9hDd0M9eC5fXJvYI5mdca4Vk8Ts5mJZWrr9u5Nl11RWr38MoDo+rWb2TJxs0hI8GinHN+bKeiskLO33NPBjiunfNKdSTO9MXUw8KT2i2syL1EPtbmc1G4SUca/HMk+WAC4rGbSZAJoBNWxhGvXA/bX00iQoExSJqnYAxtxZyAsF4QacKZffPEuS15P30llNSzUJeYKaUGs4N4Xxlbfuqo2J9piX7eqbxvPTr+rT+3Gass/9nyt3TzU67lYkJMDw503z6YB2keI8XNc1CJSrKpl1IYviRMkAWae+zKITyFPd8thSTeB5wMplM4+HeNOXOzgdgkug57AIpL3iSQyP9QOpqBT4fObIEEmQnAUx14UJNmdY2YlriSro7SbbzWDCBCkX3liyrlReRkDybT0VsjgcuTfjdCniZlnONv1W5TVchd7WFNasLY8cVjcAw3khWlTp4W7RuHCz557FRNdTTTXxIhDcB591YM0cZGUH4Zn6X9fLrJR6pr1bLElNxrCmOCUuW8bRew/jt/r6zb6xXqHLjCMCVaznS/JGpnO7KdUeGNC2IO/bl0pdlpDwqRRnancdxgej++WoveVw6zYs9z5bDBZ3rbPIj0C2SqNQl/iFxSAn5MdSjQHqpemlUQoRwmA9ZZcHzisqZiHhi/BjmiOcGLjXCZ0lg5NuSbijaeqPqRMFaNA/f4eWZBNQ2qf7oRXrFH4IA62m7hkJv24dZqsv6fkAGaQFWfuenttBCvTG8JJE1/G45izz7hk9KkvWVP8v1wNIUlPzjpTpv0azxnHs0DKnW6qKdM53XUHCii78y52yVJmbrAogX1pVH3lUk2UAW9nF0m7Q4AH7P7r02tKRM/KKnUIhoMhMRMWgDU5iFoncuqYly6l3AMhDuj8Cn2FMXkkxFpZSlCczeFIO/6N1ZXAhuJmVZqg5iA+6mDjDpEBOjkM3VwxmkPuw3yziOtxl5tL8I5Ox+EzAXFtYGD01orWP3IioOwqLC2c78dIu9mZ4cMkaRdB43oIOC2XGlBjgcaqpQskV8misr/73KkVltv0nMQowGacOrLBzLH/ku+ej+q9kU4r2Y84N0/OssHeoj+ASDly95jfLgq7eAliTE91D7FYG2C1YvBQySLXWtSzjtMSpfZUiynofe99dBVtOgPJqa3WHrETqCnv+tzmzoisJI4+uaeeEF7D/O7n1xDhQ8BglpPzNpDpjZqy1HkO5zTFOtxXTYxU6XOA6LJpEPQqjrKUwHlXjhpSYbIOJDL2aDgXolaspZO824fwvi9jR4DlNAuZ3zvc38joGYYW6fEerIejdHr2nvRsfAGvzdxHmoyeiMFB/kDqyrzFpqdSAylaczMKb6zvk2j7ydoZsjnNgT8txkzNB8DCRYiToDAPFxTa8/7CBq1IAERJglniyiAFxSQO2qDvnCuM+O7RhyuUy0BdqhoXthaot8mKGICU296RvLwAigRKmnB2b7j3+WoJYZHkWjMYwer+lazWq2Rd5w2Z7KoD6X+8zHx+Z9A+uTAs8lcG2pkpziujeBisXUIVYGsa0KAxYAdpbCk251OpGj1brLixlZtpA1f/dg6RVSX9bnDZVLZGw/l5dDUjU4zZ5zWqM16vZdlZl/5NXWNUdwHIDkJq4TH25ZYLOTMn7bmx2qRSxZavseAF9zgyabVvq3/hJwj1D8keOzmKYm6K4nPeXuiykxTOgyTWm120p11cptmEAK7EQGiuynd7C3hNfjEsYC9cFob67FXFvMJi0hMdDxEiuydGUj0xxkz/yqPFa7djVXIebeWVwFMUKtFV/f0NOSQ7x57GlKBXaLu6+qaREW5zAerJyd1X8+EvRfyOEkoNuJoEu2ddS9sfAbuWkJbM5yK2p3fXdwyC9lhQEbB/nSE6T9P/Cu04Mter6LyBSWcgeLQ7sImVFUtjm/NP5ZrroNpeWQHMvFt1oY8HqwhPa43yDoPBHUIXMQjzR9WvXXkSu3/JJRShQ/I6Ha1Ied5kC3OZ2+ifm8bta3OTwQodwaJbC5mQDmuYS72EjMW9CeX5LAtTm5WG8ICvYY3pIOdhG2gUgpJZsuFyZ7NH9Ac/kaLDXUnNw6+7H8areNgy+wq/mDK2Tv9gax53cNpUkKd5AuNXRYOVUfTGP36AAJoVsTdHKaHPl1PCuaS7IgNBLLQPPz+nd6f5hnmYwZICl5bQlDeWsSWCCXuyXAGzqqiFfBzP4VcoOMvkI/AplvOs3aVwH55Hzla1E9EBmblChvDmsTuWtN4CLcg7YcwR2yh+IZihFxDDv6pJMkOhUdDjW6RKtATRFh/9YDu5atvph5G5MiaA0rdz9w5LMQN17QHTSPa69JYGwi7wp1ZjYGWvuHpZCYcAy5Uvk+Qhx+KIHrdFDEOuU4XtGdE5PcvgjvIGtpp5GKSJ6+w6BE/TyG+5pBszEWFrjhL3vvFyk7TtsonUOS5pCVBbkPWPEc3aZKWnlrih7jSO18aP1vQl8PUUPkk12JxoVnDNkHrieyzrQyA+4tG/pqBZUaKRoclUmoyKbk3offOk/r7zYlFpmTc5cxYk2kLKIAXzr89Gpr0fe3li/JSZabvKAAbuiDawROyi1vw8u4jWXUNYe90/hF+EhhDzM5LKmmI9Ww85pqIEThxJOLnCRvItcoNTQR/796NGxetUAgJmgQqEZsy/++x6cKZfiHy+c9HrUQ9un7QArgQ4OkDhDKkPjnPU1u04tY9BvLo33sfKc0/67o8TUiBvCFCItQ/58AN9zo2kh7/0Q8ZvRoplJFrBX9+SpX3vg2sVfVuxxSiJUxyFza/gIh1fXMN1i8dDSC3VfEkiU1SPpFfqsJ7uGaic1OlgENaVooGprY6mownj6qNVJovk4RJjVSneqaUTMzwzrkthNPT23HXbtH+Wx55L88DFSQLXXmhu624mbRvFKhASjLW2+vUjrDD8I386Y/YiJN3RuW5yi2ydRdaZfK2Q2vbn98detugXUyXm9SW/ojLEnnmi+TzVATjS3NOrb+2J7yTdi354J3wsi9OjpkWkUD0/wlZC1K0U4VBP0PRWgPY23IRVYKz+d0EFSKvlfEObdWRasy2LtAqQoUXtGFb4GBtZiIeTgCvg1n411qJ5/PwGUjFuHDmdyA/E6lXYMu+MDMt5xpfPe6Z0kgPiTE4ssJZomM0GlHjkgHouZnH3nmPu6FKPVtQTnrAoxZqORAZf2OO7Yc7EFxOXsGEbWQ25dGNSoZZ3yE6LUbFv02WdtKvIcfMNg6SDwzRruXUWJ91x8Yr+TCIjS+GXeJ2h0BoNI5IEh5/y5hh7bIn3bMG7t/yYmrM4e1Ut3LNeR3HBDdn9ixEa7m7agoFenyuu1F7hRalBzuNRnv7KnbtHuZQ+FF04/4xCJbX5G/UL6tgKSCnHKmiAnSowCMmCvsTgDVGOj52DJWgbSoK43v5g4n5ls1p9bbYxg1OuDc00FrbeO2o0ziXh3Vqum3Zgepbjt4s6u5ZrFxRyEvfFB+gTqJv/mx7yMn+yr8AaNkwKxcpNHK+qdDmeuZlPiNTZsakXSM+VyjT8UhhOhks/7PxpFmV3vGXIPCONUEfyxvArJ+xQkvbdTdkFAgCUuE72eNYPNgSu+u8P8N5P9vyP5L1NsK/pgKmDG/jvZuqVMpbSWMv8WJqVTG/kUOkAT+AvbLaRwWSABq5hVUVltbCQ9wqSiYTh0lfkIiloWXYhbpKbwqbik0dpwKPyPaXkO1NtLtLWGviF/a+9aL/Nssplh6WnGFC+YL5zfEsbV+CGoIYnkjU8qR+8cwTIpYJcNAbfGaW5pfdJ+dTPEbBZQwTEn+EpB8EO/m0pPbH+aLOJaQGl2FNny0Fnzmjh16eMKxb1C52CBwh3wQnmBUwlpvGmOUd26NbZ/gYCg06Huc41WDXrVhiJ16sngmYhxnRlCezagEvbXBVvtvA5mcoAC7Hd4ROC69pyoj30lpeflhJ1l3z1J7s9rfqQa2A39bD8ae0JYbaTAF+M6EGXjURlWV+4vIwon+n6V/Y0oEYUcsYE10C7+ZtRMQ3FE+AlK5UyBk6rhYh8XfdwMHIJT7hnBlYeazKDDkgPwCrkG9gslY9ozH49mmuDbnl+ZNF+7EDq5EZmFnvlk8lI1yhGWCBpLVGnRikZ+GbmKMxexeB4R8TEVG8rBvEfdNJkbzljO5bzxsxSzNg/TwQgfkm5CvOsY7eJYTZ43n5XGA5UBirsiBU7DB9SPBBVIxUjBzpWxjgTb8OtUbLdcRhBfjOE9pAGH+BUz1ROFCbQR3neUkBeDJweE8bvfQIvJhDeWetT9S/5Zrbbj/THRRnaH6IPSD4xFzlAgVQqENzaObYmiOtiCa7+hteTQvgg2UdpE/i2+sIQnUADhWfwWP4ZE/mVBL0+/wpZIS8ONC5Y14JTjTpMpqF+eghi63RLjRKmLpwi7Mzw6AsYxP+WeocousfqS+4iFN0clGLJNfZzhSQGCra0FjwhrWDTmSEm3PhsbS5QEs7uefKFcvTKgsdcIQ2YkodCTUblkNpBt3hinFe0kPqVNUeI1DEpSlA0EjWb1dos3ExUBAaEaigxnLnI923d8l3lwDbrCrEKTczbYQu3pxQ0pJXAZStLS0yfABJcWCAd2+59pYVR8+CkYZUhISEhua4sFaqYVmXKLDNETs3Adql9O18pE7mIPX4xAVVvs8l4M0jjz3s/k0iMdM9fj8LPpBGBqRpau+lOw3NHMdHIyouHY0mq/KMQKgDOsjFI5J1O3tHOROB24Oi/V4SeMC7JE7CnbWdD7yFtPgqzcTbJB31E7yJqvbY/CkN+5BiSsi9n0gY9R0BdRJy4nGW0pNJ++TIsn1aOX1M8foncp3bzDrXs9Bw0G20cMRXn6yZhtRXenoAFRXY49oHxvRvmVCEFzoA33H9dqHE7pChkIIySXjiAwIfF44i2dsP5owc2gy7GppKFuo6jqSB4vMyjtfBghGC0GOeuXMA5tP116pv4CEpNm+V6PbYv+AgGNerHJuzAH5MxYrjB0z9Xyu2/J6UZFsfZmOm5nCAHJwDmrb4aAm39HmnDIwJrZRw866RLZnE8X1BIbHZLbVVUBSu5E3xatfYIhIqBy9Vp3nmKildkqv6ncEzYz84epMqVyaj1juOVXYwW9KrP8Ppm2VywCpsxQrk8ngpOt/sY70xfinzsNdP9Kt9nEJmtZRLVmcJd3QNok8ejSyN4eFwOWR4phPW5ZYsC7OCSQuoi8EaLX8254tWHbmetqFLPpo++ByEVmf9yotOM3WK4cFkHbnXZsji7Zbq697hwVhu5+2VrCRdEOKXxe5CxNw0pGvM9eksT7L+RHlKXaDjwCn8ihrfGtuKLR0dbbQZeecC/d03owWXksHcrZk0oxUyoNEZ+2fo3qnifd4rbDtCFFB+p3r1lPAwrvVT1T80XTlqu9DuGMOhVM2+X7pLg8bnJw8CltNkWGWOJBWQMxy9uPsMd/oA99IAJyrQe11TyG4mKEBNWJe8hJp65sQXkzI/WlNT+CbItgRrydDmC0eWvu3Nveb5c4q/tD03tSblgcBD/KKSI9LNu2/Hx4ttMVe0cS+6tnpPjRwLQxXuHy+ytAfi6Eb+6XNRHwfx7WTQ5DFRw9sM55lgSrYc0OnXOIi/Jo+Ppb5mbMxTFBZqAvQtc/35FzCQ48i8G5sXzRKh1xik5EBLO4jjuYANn08Nag1XvpZmvD/cUm9Igy4WwLFIMctwTyp/2Usunm1KOh9btJLTrbwYR6kMLRFTmRFk9DDkoaUtR9fHhewUubW99ew2mmEXiCjZxlG58If/////z347Ve3ovDHK74PwtqjKwX2AyctINgrhusJ7dv4oSlk6CuoODN2FFSNasC1yP9JJJhJABFNMv3bKZ9PwIMnIso2sYG133A3veQLrLE2Gg4esn3tL4apbQMfH/G4uflmnQstChqph37pNk5uyeGq2kkwKgMizEn8AO7mJcWssQvNGIIk7oYglW3hqCNZ6zpyPb110d0h9X9DxLFHSA/srHmhcscMbSQ7ovTcpvmbSUbTyAOUCxOyoeXno3nPbfbe8WadsPYcwSu6WJq4gfCSmM6f1nxkZRrUEbyE2zrRlHcGK6kgMJLE6mZK46O5JvV/yvo1hc5D188i3u+zkuHDgH3JYTIck9EDRBZQkhhGRp1s+FeaUY8P3QoSv3Gt0/ZNp8EWsTmgNbDp1q338qGqatAYBD4mkwcLcN7uSWRb+AhOvrsHInb9rKKj6b7sWeNkg7tTfuCv4GyTtCAJGp+EnI4lVzQPjfW+o/GAgpjFtFPjj9cM5WKG9ld0HIdRLFgz302lFJE0D5EHn9zOgaj8q6F/XOiyYtoUFnBB763/v3ZNI0srvdVptbXkjopWE+HGoWM9c5Fvb7kuOAARYdAEvKKxRQVuDIjgLzwd7KKlzhAgsnZ/KScZrwhGmDEcoI+/////7oq1SAonO9EOp1nOk4U+M6TyXs4ZOpeviht2ydyzhBk5p3ZF/Vk/LnWHDo14BB5+SH7d0iDSAUZ0g4crASMHo7uT7Mp8tOIaBdnq9ohYwfZslhZfbH1QUKugQ6j07lth27W1t4xKTWmr/nzatnI2hCKmq+V7hsH32S/c52go99bUxBBiCwMk8MiEJMFvz5vHYu5QrWmyq8kj9AanRrJRqQqFnBivWorhuS4w5ltCZ6wNvlvRgy58toO7T1ekeuQy5iXS44szoAc486A8QZsHPxbRHJbaEqb6ZBm4PnS1Vlx8OG+QcPRP0NNudLEC8AG0E5O0wCapimAjcniJHxipKOfuyxP2dvjBs7VnpX+dQEshoGVJoqYL/QJWKhJT4qSaxHFnby2VNMrmtOXIQQaMnqWY/WddM09yVrjEY4iClct6KK9RTpNcSAub4xClkgRkKE4dqMxsREpEfG7YD35z93Twf5rUnjGyWkzHcdVHExj/ytpcjh3wgrwADIHLYmjnsqXf69u9xPV60F8ldXtvihQDg28fGfEYVQfFRtdNeHFQDikRBYnE1aZCa+HYiDXoWAhaIOM97GDAgqiOAUTA6T4TPcSk1SUGAhVC0eroE3HwdStghjtbHhwj9sUD7Vh36lXjiTmtq+iR2LOUw2tBueGhcDtu/zhgh7lknesM6XuYY4HVcbRXKi4ZOjoyA+kLmWmfvLkHGzgo54X1AvQumEbqXzr9WhXzLFB4F52p+hbywvURnyXs07689eylBiCln+xzCuUJMfmmMLBz/0YWd9mqfZcdRieNgrVjs670+nAOMGwxqp0I2AMzkOBexJjLXeVaSS3kkh52YEvHYIzOkKQU/7WuU98H4dHrlZO+aavAfuKtx7sYrAlxSdjTLxyU19TEEv7METWyUsxe6PkdfYQZb/Ov3LslfWE/x/KZjVD/VvQwBswFhWp3gCwr2fTONlXcWGcqe2sFZL3lLvdtDcFruC6rog4pKbD9Li3W64brSzI9OwhpCOmUX9n4YcjTvZrFqiY69a5vtakGieJmPdD/loBsuj8n3spbeCWwB7heYJEpEPA/oyo7QJ5vc5+I0k8qkN/NbvW6YeZKVxjpajmRvvjE95cL2aUsAO6EY2JKLZwJQuNf4d+sttBzP88/SqhMtBSVipGnZQ7omM49gToM0UXVZsCQgO8HefANFzviNBTICVZNRPPI6BS5RXTwxGR6tqX4HhonnfylXA7YWN/p8y3KJx5iMyMWk9TwoKhVpZu7fhUEppLtUrEX56SxLMo10RYgCASReXRN7bbrdTdWem7laH2/mNSGmGRKqKhCil+YQbwNJbI5WqMSSZuC8Us1ANKq0uYqhtoWZmsWurvg+R71j9j96v5suvw84aWSKdRYY2NcrBzadi2rVbzoA0HmqAtoI4YxdA5sLx/JjfPf5yk7a+nzFfCwVr/J8KJcm3430FFlA9j36sui7ZzzV+jR3S8af3BCxtvBw6b6tK5JaHc+SzvkCH/Op/5D6Mqt+QVrwNCEeOpYwAENbhErekKxO67mfpCMY9Il+8whb8+WteigYIlQIH0Y+IYYLyAOxK/wN3YChM7oWG/IDo/71nAfeHWmO9NpaHMd42K20jUkNd+AzrwWE3z4oL2eNHzWpw4BVCm+k4Um7QxebNF9MIp+fSrfpG1luGrww1DkaQQ6oHmjPnDnMV2M4WKrs4pQ9HTlHe7A0noGkNt8ZafhPEylh3kk/ydvXRJce/AAeiPBLjil5qvdZcUh5Z1kzB5ToozpRoRgWsy+iBGXeY/WOrS4NQkDKfPCjNeKfhhlLe78ntz0tGJ0fnF5cHsldEnzIAzO6XfdAFtlzpFS82+VVQWKsogDRhM4acXZW4uF96hONUpxt1lMN/6cIsnGGuBjPmKSyaWT7Zu9mgYxUeuneLV/FPuJFfPRggoS9fhaHp19q+O8QA7hDJ8gbv7DSa0pXWlHZZnSEdSdvMtJ2oS02kMrNgjE1KoCMBOklsF4HTatgUJsCQt6OuQtsgXR0XaFR5c5xifAX8cJQLHpEb7IIzA0qn7psjcQYdxQqUDAo3zh/S8ZmvvgSTTvhwbhzmEU7zut/NIZlcZjKZs+wkNe2Ey92WrLArftZBMtUD4iTZCqD/SufhjuUMrZ5KNkJi3rdVjHzRKyskX3YE233YEj+LvIalxLdaSmiZcfjUeJyDlfYLXckTh9J8+l8h2KsegT+PL75tj9hJCt9dkU8QWD4Rb/ZdoJmW84kUzAD2TdsaGnMF07iDjONQUtfLqgzZQkpfJ+4IXcKO+gLYBB0w+ri60QHkRLgjyVy7AIfmTIRbn87jW1dguXp1dIbliXxpmAc99twqlzyifbLV//nqpU+WeaDS47Ot2Esy2FK+iOyFlF55X6Mfbz5DWxJvFG93grAy7hKOhORAaXlLwiM0nmkBKC0L1+zxTUDmkMtfzxIW26HXSFA/8cUXEpy0RMT6lZX5SOY04B5Xr+OAypeKKs5d75NNUhZxlV7sl9ScaXq77GjW4ojHf1phLnEZO4eRXWVUuhMOCEWB3kbHfUI6LcpOFdOgQFG2kDjJ5iRG+Cwk5b/1HAaITDUfjJklDlDTbbTl2iazOJ4TyTai2MmxBNg67r1xtA2SAaM+LSL86pIa9HArciMkSYEWjvMpuaSkJXR5nhuES5PR8eNX0Wi56xzNnVT6G9vJcZWmigTDgVr4fWl+lJVmU2ZMmdA0RrghNc1lzFBWKethbqN8qogW/y3PFD45xFnw/wABbKWbIN8pTBwxvVe/DVyh+3MaJnAyl81HXSAuTWfB2BF9tC12G35e++9hbos2alBYQ0ElLSipcmmxgoNuCr3V36QXSZXEf+6x+Pf+NYII4uwZmiTeV8HMjkAAhejO1p7l+vmwSD0gpnHEqxHJYTdL5RINAE68qAos3d0dg5vT2GcxZ/SXcKJWBlVz1H/9cmnqHKk5C0fjjQbdDZ0rHkgVyH6EOMH3/5BRnxh4LalhFcy+taV04hVPuJwPtKMj0tjPvWsed650M6HOtJBxabyNeL5uV7VjA1BOXK0IFd6VufuUvTylJodmapu1qwXB/Z/53HVPAnQ8xaSZ3sXFAx4kKt4bGEeGuAg4wCopjN+6gtuJsQEA9IYoGZOA6iKbxAqgudK7MaS7E0tWBtQR2GKNI9AC7K/JgcuuHi9kOFWbbK5KWfqKLw1ulG9+xN/1WasG0uZHDjwx3nADGn7n2pW+YBt2WJHoPRpuhmzVyIqLdlRWp78DLRqOK5zt2XVF7VoMopTigA4U6iy0krnIE2mHiOJ7bStULotTelB2tHVdWATFJ2FEOuifxjosu/qGQbVnH+YehcX5zrrjeDpx1v67mTGsn4gzVhyl/xqmS/16Ff0KQYdzjL5eLRj1OHrKb4bEyDguXVbGLIOVmvJedLLAuNCUL29BmuGWngTfiUDNqMumdBF69ukL8iGpWRRZjyRAaDAEFwM3YpuWep2RFGeg/zw+0i1nx0xuuFM8TAFTspVfARUYxMl2VDQwmLCo8NbGttjnHy3zEXFV04ig27mNPMcfJFoS3I9vjqbD35mG39H44MRscOIYb+m1+9gB2/kOiLoeb/NIdoKMaLNbpIgQ5V/wZKTc1LYB5gXVmxyc/2SAisO00cI8m3AI+1OzXNIbH32TUWWP3ZDSo3cISloCnICCXk16Y7rd11xcgOsG/LaTuR4HPea32VxJCBamYpKdZLe5ev1SSIkI+PcB2C/LLlL5gcSjXqT5q8/X6xRKFFyBL84TZsNsFcI4rJaKZund54xILpfsuB5rOSkuIhp45YWJhgCai7zN3CvBeUNdiTVa6+KPnoxdVU4LvoIk37dO3O8T2T49o0Z6zuH7cDDv15nQDeeUZUdqJk37NYeTXuQffN5dkMDLinRIyqqQ50aQSwPmaKq86eEk8kvQm+r6vjA4ofwPKaSKM+q0mLA3stCjFgxZ2cYOpWMcNbDoHN/IqVwzXk7X0f2y4uYIGq3b7brsazwoSPWm5nVoPkLD+HHJAK0KUHIzaEbIWdTUFzn9LNK4spk6Lt8duOojAP3hpsOMpgepMqRTCLc2Xy7LM67FbyWJdkoxre5V/qV1OOu0XO2R0Eh73gcJQfxA/aZTgosUV+6Nmcb9M6cSvG6Rua3A/2cCUD3Xa9yoIVFvSWJ3hSvq6lxzDfl0Fm4R+vVSVo5TUO0JkEHmtEMpO/CrFxh1hIyi1n6p4M7Z2JoGqLQ18tAlQZQ67nmxPO0uhhdByC/1q8Eewiqi7VXsOrST+23wV5pb0Q8GdUWmI/ASfC5BTx45aDMumOCNpXwY5yodAF8o9oeJU436y08JR6F7yN7ZBeV4unAHoN2+fs2u0qoID9qewh3z0seQx1M6g3rAghZUHBxy4I80fcCsfp9jDIvMhMH9fbPOY+sj+6e5reQK64m+XUv2MQ5KmrF4alZnVz0tToGpJWRSk5aXmGDKsx93nmaC1u4T6wADqUNZjqS8fQj2SqxFQM/vytArovtLgOQ+Ic1A2k82GteFy1T0Vo9bPkbmzcU9cnbkI0yKZPSoSQADnJJspd5kHIEZ2cy8Ufa/MCGyhZ5nBukfemGu+L1GW7zEj4qYUr8C7YdycBbw7Wn7cpCX91dztUiAX6piNJqREmPtO6eEgb8t+I9UsdGY9/Orjiyjsu4XV3RQrmMdu6BsMo4aeBFjeDGpcbIC6v3iZ5hQgm0rJBeInJ5+SGgJzG4JkrlQoFhrYtIhN5rXCWyyC/M2uWKo8vQOQxL8zM1Sx/UgyXL8Xmj4gHr5hQptssFp8y6ivnsyYqzd2+ueUwQKHrZhaU61EOWs69KZVMVmRaYMnMBkPNPI3p3rvcDfdc52Ze7dgphoSguckolremhmiG1m+p439EsDJ0T9MkkZQ0oc9nNCVYAaAnu6TFwhqdppe3hNlLCWKkCRDxh/HyMllBky9u7KC44FJrrnJXWY0LfSJCQ7akKVAfXxJLOIsGEyEbq/FxLdBk1XlKSOpSWlwlRoefJQ4GrIe57YV9ep4jxNKm1JLksZIm5i+n3rUr32XYa522uLD5LM4+AeDBOHDhgDNNSHaeCfJlE0JNNiTHxTNVTAZKqTAS3Zlvuw3gGZPEkoBMsm4OKbhpBVCmk2vVH+F8lfiwOzRAnGyqTg2GZPB7MbuwljeotSp33lk+tVpze4qXJyTpFDEFi8vaZsPlsTxSDZPB6IDcHLcxmca98YwzTHnXIlSLzRP2Pgo2gW88WQYhI2P+pZykwe3uL06ivXBSm7WylKzTHFOTBR6GoL0fsL3U5727K0ADeh1IOsWFG6T/d7oLF4vhTwH++kOjUoysFlQQQQAUFVXL7JD4v7GjSMwYo4tXvTer/mgO8ld1wuyTMtgwFDi2GxAHfvuPyY2kMymoKxFEFMN+GjyU4eFM/QcSc2NtGo7P0i/hPfFCmXS55W4CpRqWSjhfsm8DvlueEQoDRVJuyqxdyMUMKDRUFOEVcwP7qc/mUBTaJ/z0pVpjModrsHCIg/Y+7Ey8pUeb+qUgCScho0WZQb7xK9ELMg7Wuz4ZCzh7AIHO2T8L34GhXzq44auEM+Wf8JlvXbBo0GyxwnCKZd/l4To5vzAI0DDvsqI4p/2cPEzkXm3U13SrM8IOaG5x9sF/MFjWIdRlQD5cO9b5xb+JaCVCLHq1eovMj3fpIpA/XRDRsaV54MmQXdAytlcOoWuFRo5mHZSBXfComP3MOq/havVJ1HkCVbs8EH4k+HGhMfWJgEHFW5iciCN/6XMv/Tz6d7WELwApewKffTuZOeXWISEJ+tH77ugJ+7TjLhhNEsl/uKRT2djUvXbMp4iu4mAJxVjDzPHDE0jZ1RO7/eL36QHmr64XeMmq65Gs8Nb25FyNWbWFkDBAqhk7EVRQHAlj3gEY8T8uQjj2PUXGxEWdJ7StIcaMnvAkQoEwlcHH+npeTJIlV2pzX8Zvi2cHj0OluJX4yOQDovSS6a0XLehVYisQ8pZWfs3wEufc/u6tvylDxtaTVpEIYpflS+lL9jGg/mHcv3yoDW01grbmcQBQVyEMR0x7vSO//XUc4Opk/s3LVCTMPcH79JCCuDbDhUU5WvrdbA2eLGlxAjsllth7lDM6xN7sx00MSWf6pyot9aBW6FHhqu/ItSvCYhVJrc00UPawf3Ax4wqJ4PPlLU8688k8f1Fr8LpZhL8HEkWeIpalJJTSyDmGFruT3IrOnpg8ljtQQQjT6/T9GLEclTl7sVp+skEsBBcaXzcp6I+bQdbSUG1hrvGVgquzwmcWGMCOEPpYk5GfDHZutsbUUjP2OkjAh34eO2dze4h6fuGLLUSdY0YfuvlvFS+OhKJ1S0twnC0FTCCMzEdx4Fbf5HF9bobee5tqD5uyu8X6X42WVj8n4HBhzu+hipGn2DloPJ48Pd/m+qXFsAnNFD8jvSTWy3eqFykkHpgUGz7nQSVUX73e1Xvmsfo9I7xjMA+EERi7KSykYGcEN+sNDRFYTNwYxJdcYkVHlIsLTu6ZYvXIi5+KpjZrYVNK9skni4wOGs2yzkb2rHRp+x7TmwQwUWLAAKsk+kCVKlKfQqLiA+O+9ee93SLIJpgSCzyH/LAx72bfna361Aue3ISfkNDRPOaHdDmuT2aCZkDyPTdtIHb3sbnT/NMVnsSQlzcyqPpbbEMQE+q1SnLqe1AkRkG2QF4QfuDalik0yn6eQwu/+wVfdT6tEE927XNx3rxITEg8/vYDxT3OTJarRhNEORpgGYDUWydGfywTSAjA2tTxTPxqPtk7NtheLiGv3j6QaRLUyvywq7a/jNRCoLodD35K0vYpXeNtwVOQIIXb5DXe7BoGA1cflm0u2Uy2tajeWNB3nOEkvpOUF/IK8+qnUy9qr/gXnPMENaZEZc0Kk9ouNiAaAN67PGuAMGo9wodU3yAvEf2YT/ZSRcdJ7D8cY2NlV2UKFRd263RGu6mxD2crGpSF3+1OHB5UvWKSJFKo0b6dr/+UOatQ6e8C2jNvdBRzRn/oEeqMiBBIgza5u6m6soJSbKgOUMVMa7akkP2iXbm1wUleEaCVCXLGI88sUb1fBm3u/ZgWj4/BRUGxPmVjizhDOYwx5IvDTycZzbqSI36J6L8luXuHUTKzCB74xZm5PSN7ahPvtb1rKYORXoBnQFCoiNQ7AFHiQp7EY5CJj9vAa1miU3bW2gF1xkY6PfiCMfbDjCWRIWrt6PylwSAhK7tgrE45Sx/GzM7xnjJraFkvBsY9PJIE8wO4d8AKpOSiMYHxk7RLW5VNmO6J8VZFdS8DtCpiP/Ugl/5gVKCrOkzhmsK8cXCo703HVTsHiJxrMhfwiuENRP6PjoorC1DDyyB+zkL/EiKMLrApAtnyyfdZ7c7Bzp72Lm1eChAMgVzhrII+eIoskZIi9HbOjVttM3DiNvfIvorcAT1uqq+wl5LB6GLOzringtplPC9nsLy01V37xr15gpH6brqRtpTMKnqXcccuiaGpwVpMFxJtMlXaTNe/cIgM4LcK3D5TStZe6meg3P04TPnt/26EVxdQuMxtcwVd7vidIxzJ6dGCx6HPMamyVtzNKGlWzx7/+SEIhFM8ssM6/JBpw////8zfGKm/VLEmkeVrAm2LorAjrqgzX/8nKNbm1AvN+n0T86zyWFqUOEc2XZ8ymrq+KavODExZE/jAe0EzA7OrDWKlu+799kNEHXPGOEnbJp+2jKO0P1wP+utZAvjMLvU8iAp1DPBmKRdndLH00H7eAJh4erOPsJ/6pwSbyM6Vcjj2DgYrnjywox0/MAUG4e9A6YgSHynttePE1kgZraBxThRrU8DcCGCDNaVTu5zNh2xi7i4jeFaPoRjK08SdzEQUw4YGWwonOk5dqEI6EWYpF3fTc1et5p+04I6Ed6gnlZls/WICxSsfg/vwUd209+lH4kIicNNVlYvkyF/XHh/lKYgBi/Vn9XRARFSIuToEikwBik4HnEXSY6pArCIupHAKFMlT7LROL6dlj7V08VJijxEPF6C0NVvxRvPEa8vhc8vvA9sUwIobQj8Bc95vO7Efs6vkgdqtMv4MqWT8UKu539ralnR8w12ujNeSP3tRYr2kWDVJNAoq2PxxY04OkAjHE98ZH3nFj89148Zm1F0Vuv0DqLrPw+VanwLg/SfP4LpC2za9CL+WSl5lAhkLg4MdNAUV1miKxfKfqsKQ3tvxVxW1cDUCTp7+TysuVtqgKHJEQ/ypqS/tatrmPRErUd9GfeE2SYw47xBuaH9+hzPj+xTICQoS9ACf6UNUlh8yNC+6fMtQBwZPc72aQNvbVy4F7WZrJnGlkoMuwVkKNxBJjsSTXIAk/E3WqBg7UOS+AR3BT+nHTnH5GgWTvOUcFR1JfsgVqHDmIatEGD21W42wopgAsGXZt5umat4AJVP7ifr5LdS+n6i3pHONu901c1h9ErDsDvM4QTrNP9bcpLJpPgwVloZlKPEPi5yJ7XjjqwfjTFKbkD7VTpGA9T7gfZ/tj0JK2Zae4J8ejXOlTkh6pTo7K0AikrsNwL6/TCIB+km3HSfckfVlv25XqxWRuDCfUn0tF4o/XkmjzM4MvrZydmxDrc4z2zsyscpdKIyYladUBZ9b8I0tuXgxt+ph2tghE60SIXD0C/JnJ7UjyrLjyvjgB6FL83VBtyPfvnKD7hWnH9olH2W7FjzG0YbEwSaWG3JKKI2Eo42BwuwnO8Ksk/T73gIHSwuBnDaKQGP3DrCZY32oDYbHvWkX2taSyD3H9Fj3hTvDaFJbNk1al35C8Dizu2fsPGrENlg6FkfmbFxbsUazV84FrK1stgxiftpNA6vbFwGgAbvtKbom/utiSwfQI8M0OtO+qzUqppMqsYS1L3L770htRrsMB6VJ1zPt0hll4BY6MIeLmWp6zAc/Oyt+GCPjAv+ovpcmco9fLe5W6Ag2mPaH+gaz3sXZQoov4TVkouzpuAov+cghC99d14VHgmcpbdJvUoWTjnOKkfvUEDV/LUcAd0Cj04wwRgvh7VnZZ6F2mciHVcrUntyTiaOZE7J4qA/iZcwgC5PLGjrSipEHawKDcDovw4YFy4Rh1DjE+g+A0lusIUyvjd3X5CNQXh2Z42rH00sIuiO4aJnC7I1x/iEUY7pRcrpYkgUDkwHdHK0pF2jVnjCcl2MMOwTJ/xNHkWUmTr34okiQFWeUTsKFBAm/NfIBrgC4zcfqQvP+6WCo8e6End56i7+31/IYsiQAkv+AZAVDVXDpCowx05qoMQPpE6B4QyQ0vD18BFi+98j31ddME3pQXT6Bz8slzyDpZ98LgaxBV15o+6fAP95W+sLdVpiaq+qowUMSeryFJyzmM54itc94spFu85DQj9bxZZT0/V5KlgDzl1M8bmbrgAnMgUhRMNplrKZnwvQKd0/LdS2KZuVbL4K/r4YyuOC0r8mLllJEicX7VGtpfMv/F0kBJ4MrTrGCogYem4REl3XBLPxKUxuPtkOvxpg/M6RkrC7Gh2miZAYBrKkfA03yhxR0K9ZEX3BtrZ+SeKQzw0ywExTqsndGDf2j43e1AMZ2R2p5+KCPOfGVlUGqjN+tVFq91oVGdyfiytFPNyHOo75OlotHB4jjur8dzZOUL/BPz2cf88Ej5jFQP/uH1OupBJ4KmF4cAYNDEcDNCjmgAtGXxco+thOezdn+Z0oaQXal3zIkBDUvoY3mudJtzmUkhyJWmwIYhlLDBbTemjKdpCuyuXcOYn3vXxvELujkNV2iCKkkTTtAyVBPhS4gaWEUfaoaB3Qvshe+A8tRHL69W431KFYEuJPxUnfLaWAsiC5/blOpfaPLCjWnn33BSO+RTw+O/wSEoYibYHRTdbDdXMVlSwfIMiAAFsRsOWDKfX5CqPMwYoBKrBjIdn5XYxKDiMxV4/mN0gRvluOmmAdOzQYUGYzodC4JrxDYBvPfPHT0XnkvMCoDZNy9GCAbc9VAvBmnIPBtLOYH3Azep7pBM4jD4/egCtXyP62B8TUFtr31rbDDa/dt/cErQzMHCr9qUQPINZbjbTHFibulPX6ejxgElSAKkBagSJ8/H2o0g6qybgdaeGGqFaXpmrAnR/oZBFVcx1XjLapls+E356HN7yrNAE+E1Fo6U3LBLgZnPO4uIdq13PtnjcV0CLUMi8xuRP6Oe43u+KdXi+RjD9qTRz2WtbjZJ4vWosXZZ0DJLrO6X14s0x1YhhcL+fHxz/yFp/XwzZRxhgTSUYOYERvRYVLgxOQAkYEn4YUgpBEzJnIq32V5KXcGWHTJugTPUDirInRwYPRH46AAB5bhYIUkUCgdvKoHwWVBerhJCxqK53fHyxXxBTzftnMXff8n1W/PmBv+swW4j1sUDZAYQo364cL4IRwM1qGQcePnMuyMUTZ1IejZeWidCBHFvhwPljS2R+Ki3GusbLbnrGffz0KoFQW8qqwR07mORHwMOLp137VOrmXr5XfIeoPIt9+PO41uOW+W9Ht/Y/gMd+oB+QO9vjxLAk4xQhBzrv76IUzdKIemJJkza6lpIId81Ysd6XzwjOjyXvpYU3mI+agg0xPCRwGlZkMVN0X36aOE4NmYAjo1m94z5ruqWNK19UrGkpovqY7Bk5Pn1OQJ7w22fiJwaztw57GYcLDejYN8jwK5Z3nKAV5Tnd6Ic8REB2+TwDQvv2tELaUmZ6j8XcBBTlvogiGA0I5RIY7nLFDtCUNKRzjmUWRlbH97MmjPG9HkCb5LIgXlhgTtTjkwjYQdgd6WxYD5P5zUleXEDWP/js+3JUFmdoZoRzopCsuL+nJ5TckTCzd/+IT+QcFSRhfp20CSlhOuex2l5AxRguRdIqOxr6NJU632rDAVVVVCqdd0y3K9aXdvokRqHdHZI6i0jxKm9ygYrDFbKXaEd/ezMnOpbo8NJwkCRahSTCDebn5ggMedVXRyuo0aF93HqTAcGE4Zi0/M0fepMwaPWcx5pGdR5ZidnxP7y3iCx44gLmYjRE1A3ZLvTHKCxcRmdBRoN8RGaxmDcgI2cVgvbBfubEpsd5wbX5/A90+nmxnfGLvJ0nuHT9dN7zulHxyUaApPQ5FRPUPaYrm7MGsHoTE7HSNd3wqE64zI3C614Us0FQf0r3o9darpKmmvdS4Z0OMMU/uXyi5U7mOKL3nRxH/A3MGRId6KVKK+U0vI4fgcyiwz9z9H73p0eX8xr60ko65KtwVCV21geBwfXYnA5B+yO0mhal8WJA0bMux1tmuYDHgpytww/uZ82dkHshWA1XlIGDF5MuISH442wpf441BelaNXUVr4rYCU84RwfHGgbJL2iNpRsGBsfiz75+1ViGmhg5PDzpC/80y8v0zOZBmCfyej6hLN4TnHRCYlif9lOdgvcEPK/1r7HaiwN8u/0wrqmnkxuzCHuzyHknljLB4bbckkmx6y3qxUYzbqRJdM1vRyM+8t4BN/3CiwtrnkQx+cmHId7AUrSSwEtNoWRV3mr2ykQmrmcYMaQk6FYJA5snTsjDU+tUW3xmc6FdJr0IwGE0/GafCIjK0bJ68rdTxWVjD02WAkYMGlLld4XJuiIoE/xCDK7rTth2UuB9WkuTOvt0hyDyFt18JD2JHtWix6JDVo604EY4yN4XPfC5ZKSEOCne07siapTR5yTgBt7qU6dxHw9dBeRanzUoKTSfLEvIROaH1ivM9xaIWO4uKvTSzyAoctzC944D6XxxIHkO+Qhd458jhn0hcGxxUY5bOj9xRyBqxK0ojt0X2sxfDW4dQzaeeSC7D3Uss+ENBo8IexDwicKbPFv88dO//WdgUd9EPXErZdJMAztMdyZKtksYQ9kN7iBKMYOFprbz09Htx7T14VFAsR7c6f7zwOEkvRDdYnWcM0wU9NF4xCMwIccLSit1iSwC/KGKLVEM3q3garwGSkA4B+L6NyHHoiZ0WkaBoAGzr+yNrxB3WjUMEDZGVhEXAVopLauCB1EPBSX1bCKxLEA1qDPCT4r7Hv6iDuBQxONB480iF85fKMZDutvKguYqQACXJO6uLux19xdDXybyE/sv8r/kEtKr4LNMVfH1vd2kVwvxV3I7FfYdPDuPcmnB7NZbCzJbO9V4jM8eDSjhE7Sa6IxK0Cu//tAZpcTDeCQiugTbHujOIdn0lc3DoL+ioaEiZsgHx3aziDi9nHWMWjHnhz1/x1ASkEXA/WU8Drrg/wPFS0A5u5thVGPXMABOUZZ/wr8H67th9MSKiDVB7bgeL0DmECv25hB+Fop8ohqg5ss/p8CAtOIqPe97Qf+IrmlEz8WSyP6YM/Jazk5/lHSYsAL9f1uo/VuEUtyMsASHD/8MaXsFvw/w6CvmJrHNDVHfH2QmDzjTXozqhEOtjuVNHVPUuEPVaUYZarovaEqrym84tHd+s9GeP/0rej7jQFqQzvGEschZ6digFRgG0cUWIOhGTpaj5GP8WxAna9DBDMhzjwveFnHhxiB0+RY14n1AHOEcRp17lrU8L4fAuO7iz7hKfK/vMwe+Du8DY+75m/XP9Ra60KLECyCWKt/QJm5XZRQVCvMD/iP2CidXx0wJiEGLl5xBB8eknYgr2mTrL8S36qt9GaIIV7OErQ0RXdIQflPjseqxNo+wsvsNicHfi1iojT74OFPPf//9zVi5tKr1IF+HMeHE4xo2do9qQO+LAxv4kEJtzGKEM7zmMAEdtI/L9a9Srda7Db1gB2epAmz+bGt9Yte0NzmQYowMexPKGFN3u3uzPRCN3hWmic1J+xK0DfJdV6oNqYbScBtyXezMMZV+gIHM2BG+TXysrgBRWfPHuu/Cn4BwEgPIqGbdfJzVhPs4VbCIF2AJeUdpIURYYuBhr+RzK9Qor3U/HE4oIVH0WC6RGZ1gMlijQGNokcssZYeS6zbj5OXpq8iJC1C706r2RmJ1/mTvMpR4JMSxvGfnzv1VTZZKQubllG7qWkQC78PpiBTXU+tVVYk65s3Sv6aNLLzJKyc5xukXm992JcitcsUQTa3NAc2g81lpfTawvkXmJDj+eINrsk2O7afpXkpCvQcE+MC1cmT8tTIhYV65kkmHY4ZUeX2zQzNu+5nbC7jDFYVLB1SRFCmRTReYVH0ezyZHN5YTD0Ufmp70emvXcaNMBMa12dbFIDUhNwcxS9DNQFgwol9ZdbO6ouCo7CIQi7otlWIemp36DRhMfm0MwMn6bltZk2DukR++TOxIXPperc/Hwyv27QKCLVCvOm1pQK5fbu6tAQOWWI5DQs4oxGn6787pLrpRKUbmZ62av8G90Or2DofVYsXDkK7bMPfcdzbE3QgW/bacMKL0bEDzmlL9OTbkqXNqYId4CzqF+gjg/UJGVtylkl7yfPBzrxOxB8jsfwHbqLLnErb0IapP2Np1jEWEMTOzLo5EBBEVy+LrGxvmmyqPq5FbNsYuYFlqpHH6Uu7986+DtDvMZ/ntPkl3SHPAiybWk8pQuv6epa9ojC8+yU0jzple8n94rBXemRi5pyGP/srBFKkBqDhKndTAgPFi9Zx5bEoN9vt10/auiFNdcIvvx+oF1QUN/b1BZGCOrfnLwQ6fPSfMmvTLuqvhRC5RTtx2jrDYxFp0XrJ9x0MviMAsWAn15P7ETeYhRpH26AVBqvm3mTvKt3kAiV2jxYJKWbo92wRvaGVSLXjevyHEdjfQvyl4+AF/ZMxP+2NBGvZeWnBvlxQbFyKh6dgkw8URe4tLMgdZg4pZUCSyj+OTd1BZXohK/xjMWYDlY73xPrc/l63yvFmC2o8R7jkJXsSsGVqBEDJAapl2bQ9Tm7fd5sSVpOQ3uzMa6TquQA71eWeegrTf1/S7DXTREGYHRldIVRlbjPrmqbLvCquTtvnhg38UfaGL2JAZIntQ31JY7UAcD5ELiABj8gO5U9Oc+1p9yGD9C7acMYPft27XLiFcqSTRZA75yX/1+GrPizknv4heLnkig0ySwXAZM5DCsAUhyBrTWpasdAG7xqN8M3Mrc9KseC5Vj7SxlN8q5e1dU0hRlzZxn1xjsyTlT4Y6pwcjwzPfpW19cI/OlBlcRvGOute3NNCUWgmsE07385+9+TCPL+DHOV5NKjol0U1B0tAUEvroHtp27POiA5NfErTTtqjbFn9MJjqWKOc+f1BihQJbsfTiNcLU7Ql8B4/Qt5RCfz5Z/wb6BXZywRClFmMIa3ja/IaOKh1LTn0hZptImW/p87wUyfXsZHSPRGLga7vWyhwvhSG8LbpY31jibMsw6OqzZd4bz3VRtQnTYGlatbRXPGAVWrgvt5jw0H7u8fbfhphSFvcYnt51efdTRh3Ly+T+9rQzixXXLokEC0XHHPyPRgDxcWXhu/880xiwTMTsK8Y1iinzaOuvQsRiN7OQcEavbIWKS7BsV6NVpMYepXNh0G0mxbXx8t6WTH25tj6nFFEzJBcLtbfgsKFWFKqJNrIj2dBwrldDE5w6dsWJlUEkvQRMDLMXPlHH2oT+TtPr/K1svwt1VVY4jIzT8lod29H8/tF0VqZQ6JQc90xvH2zOQE0AS920m/C5ueaPoZAUuRhkrs0Xou76VUOK1C6MQz7Nz/iEqFrmP7hcu48q9gKmKSONWL0Ws6AAsRY89cGHE78eFR3duoVZa04st5dnwOht+MANrzUOWw/AUk1m+ZC62CfuMAd7Ur0upUyTTfU4/GYIo5FII/LlKQO/b+a4fzqMttOsBZbnGmy4ptAiTKWHl3dtMnSl5HQ3SW6KRt+jzmej7twdHwwqzRbIxraqQswvYdhf2zOzXdJhlZnL+tIi09MCQ7PFw8F0qNkZGwG+4xb3hmuTux+iPiD7IlLAc18Ut9BizFS/jbEX0mrvXXw5+gMazS5udqVnX+4GGZAGUn9svycO/gc7ECK1B76wEDXIHcqdx/eI6ShePnPKQiL5pkm5HxifTJnUNdJvEsKWZJPUyyMaVmSHxSu1IoXFoSFkG4Q5DnY8oo7ZApbCWGMxRBdYQbfhMK06MtWOOAbD0ySIDF4fX0ALQ/8x7XrewJfkm6u23t/usFVoLJsSRv2RVQEY2wOoK3BT8UhLqtro4bXSJiwGk/CJhHamNxDZPJVC0x7TrUwytpmHJnAKW3gfHz2Lpdosr6lW6BFZyV/05XNrpR3oQHZqoImAkGJn9pG/jzMNAdK+owJmI+m7N6Kna8cNbAPmrtTLzGNiSFJh642qm9nMmpXBOWicW4gLV1Vl6WcZlEyI2QcHwVILQSGD0EZfBVwgrQwfefEU6BvCemGsNlLsTTe/TBRI4a53OCJDI/DUVaBVyDQ8PYvjM9VwsuyRBU3VXGVWmZPi+/ODyzmZtCiA8qvXOqpy7B6xnO3pGDHSTpMY/TfWaHlkIGKF7Na77g70NJ23ExUOhxfi7F4xIx+4tTaU2jObB/OCWG8uTJVH7GmERQQZW99ntGmlOnDv4Yjt2UnpdOU7xiurDzZ8a0N642Oz2OGy37nUpRLeTS3gihm0GW0Rv50rVpmtg6mxuSZ+JKqNZ8shEVwZDvPhdENRXWdQAQnGlt1JFaAilxTSqP8ba+mGorS+sd4QS/ZBOSD3vtq7+u9QLLBKNbN/jg6CWWF4Ac4atx1j5uGRpsW8uacFMSS7sfL1hJuEKeqppsgpimSAu2qDdpQYlafcIzjU1UJt4/EHSNsxtAZPxjDu1VdEIVVGJamVKBop1ycewK+Ssj8N5csPZ/+waYuVgfrGiG3vLXxJu771d6WI40Ac6nw1p9Mh7nmSuLAAWlI2/WZPmfR1n4ZGw0YTnvHqJLvKJ6R9RAU31I3aRLI8NXDUEXP8WOTDoxUu1CD0juqCmiRgnojEh5oe2VMfLah+IGnCfTUTZZCNhVw8Kvqw3Cx94SypeX+fIDwiCvcYpRWGubww6YbDhq/AaDyEJo4i4n6NPTncXArEo8qu4UjqS6LeMCs2iLxbb79bKXSEuvVa+diTvuHzNHHyONnnElDmUP3m0xiZI6sKoDqGFE91r9Gm0HbsdNABHbF/A2cvDLvGswBySuoLVMnJG1Hdk3O8/sJJzSXb/sMZ6myWpcFg+iIggfcL34MoGGXCcxxJfLmfEZzDtw/gfSuEaWA0KXpJVsHhokyC9R8j8nVpQCNhwOUU556ZFBqrec1r/1EhHdna7hcroCtejjh02nvW1kltgTHra0Ud6HSJqkGkyHCjY6avB/BGZHNAx3BRhOPblaeGwo/nkN89GAmWGMcOQLZJEG/AI0B5yWykEzQmERGsKjhVDoJZ3d3xLX7qV2zAKT42FIZe7GDnBMQBaNfDyO0dM89G9inVeJj9IwO+aa9bWcKXrYeKIrHzl2sU3hO54XFk/occT+JuKkNIkVmoO2IVvFKKANMNykouaasOwcr7DGHcFft3KedcaV75A7WW2j0WG3u3GjUFKuLvm0a5yMuHy3bZbZP8Uq2aJIRwxIK5cjvjG3Yl7fmOkk6dW2FO1/noL22ZCr60Ra+zS1seD79l727VqfBn13bdJ/8L9Cxrq/QW6xB27TT8UbUVZpN7mCpPll9S3pvGUQRFFJggzIhUsIMZNfL/l7n6VNC+kSE2SjmCpOGoHrWWOhbQGsAAWfaAOnmRHgYkDDFyKZbfzFp3VcVJqBIY9QlZk51/o/4oaO2joxOiYJcVXjyhXdcgw1kxMkXHGNu5JUa8JNop5M1Wck/CQR4hpbi+ITc8l+AidbD0Ge6Zg+whf1uXz/INvodDy89t8sv9OzlEu1mMMYWS2U9eUVdtS0mYj+a6o3uPypOuFHKZI22UHwh9JJhGqtm/ozGaXfSKjE8ferM8AdUCEiNZRas8ehEZoznBxXHkjCWpwOpji8lpSMFDP7N2gPO4O2+jLwTGGKDl1AfhqTLkCeBt+N7UIfatKXwYs6qSBPS8iTpcuGOGyzP2udDyTEqdcfwieZpkn3syTpHFQYZZKhcwjWNAoGlhD/cY8KXrknZDRQ54rHd4gLCzuI4eOlBMQMdpWrkGrUqmso/jWfOtBubFPZGTxbF4gxlokHkq5x5poJtX/9psJEemzyoXmM9plyAtnHmhH34bJrOEYhPLkeb4KDsvIIunAPIMhL74SjV0S+n4PpFR1WmBET+HV3JDSeDTQnO/hgh0os0R0Y6hhWc5xFwEA/ihyjfJHM5sbB4//4esq2ntk3jY9HPAPUhrokqyQ8rX05RoWcuhMoWzelmBQG0PUtAwz6InRLr1HHMyNnhwL4YHqf4+GrRF3/o0/mAs3VSSqrvj/kuIL/GoUOLB7qp9R5+plcShmeOJDbXmRDWSGmRwIjMsG9o3GmhptASV8zK/hNMOm00sO1m3rueBclOxiua3CZvDog5bn0XjBbW8ZAGeeD7AcmyMw4hfacXWP6lXDYNQHsfEUfTRbxfb10mRGaSSPwUdrO8CJuHCST7JFb/nyVd557OzeP5ELM1/v6PWAzLH3zBaS3g12OmYI9AMsP9Tl3xegR8qRG3cmWLEpjduEkuwX6SaXXWMVKlKgV920Jy1zeuJJxxLpTAD4cWv5AIhc8ZbxnTbBNV8W+nzWbpvGt/Loxv5uXgvT2CD9BPbkpavgWoEqLIGa/vPD3CV9ci3oYQToq8DEQG/kLU550U4Au4aEsXpDpoEojsM4OdiLmXAAhHIjccVk5hz4FbNrNwlxftBOBBWRiCk5lVcIDJ9aac8cnZQwc6BY1OLqIo/hl/svV4GiLvI/4A52mPqT8kaeVxsjYPYsXdxw7PsTKH1ucNK5MhOqT+r05OTSWRVe7agh6/415fcZuG8u6VSvfxzBzUAXNeQ5NufkEhPsPGCFQ4TlHktueRmBkHBOWmx0OUmWPqwxT+PdRryIRVKeX2Hu+XnmPIgflBgdyOMoDJjgfPqkoYeS4xqvqdXtmOTuFXmPhxGZd0OyjHk64lqLdU79140BK5tvn+J6NOE8PCKyYoTiCY+NsnwNXAiAe8rSDAVhqCK0YFYlszGdDQaW+MUw11a6cPHx7i9Mq6QNSGi2ZM6pqvCI/tlz/Q6FBYSB5sikbkIoY1YxkEhTQjVaWpybxkQQq8f/1uKyKQ7WDDvFxiv0Np3LHM6G2TZFxzze/uaVXs7iePvoADVWrKOj1zfGYEBzm65dzczTH+fll+pMdTQR8ONIdEE0zpUTsjwxArsvwxObiXwHOe61l1X/sr6vnk0OjJ6/Er8oTqNAHipGn2tTZvlt/M5gMPuSpXkjaEnzR1+cUXsw2BwdTkzJ+1jJqhJahxJDXFaz91k49bjOvmsNPHSn1s7LsgwUfXrIc8JgdvmjAt9Fz+c0Nx/V/T8/DxDCPeakK2Xn0nUlGEzhiRLeG4zhK/xKND2gIk3TwLTCQm8hsfY8h0oUrIfFGl4QxSRyfwtfWp+SHCH6Kz1PZMU/o60WxkXKGiS9qMx8VceEJ6EcY35R0CrJbRMlMbPkpEie/JsnkrzqVW2YI4c8DGm3sadguDOvOiLfAIi0V8PInCx82cxEMIm4vJktXFXjWYb/OTntqMd+ST8Q4z0ZV7zkcwrqKendVGp28Ct3XM1F5o1Yg2fkT1XGRV9JBwwoeW89qpUI3hWa69/9b1zklma4Prowe3ZWX9Y0dqCYiDJ20G9k+7clvTcArevUCDpESrqBr5FiKwL2CT+ZnTc8wdtFpZ70IDfSQZIayeMON2ATibS8AUdFi1FARkfQTnuMJNYf3Jgjuf28d97lBiCd3HGRolqCn7nsE5E+NVO+j7TXS0Ar7wyQHCc1r5xgS7xD3XmtRPKqnG8e7V8RtGLEVcCjgza3QlGoKnrNV/iUfAjFGK5qbZXWuYYDYNU6dBmMVtoxuTXEuH+5cPGTpJs9+CxeGhbKZKddig3K2KKkJRMy434F6ZL+sHc60/8dl4HPT69/P5PCJs2vmFtW13Lhd5wOnwVKhOWKMIMhAPIG1XAQEG0hXDpc69M9eO3nBMIDQN6lcf0DR67OJt7c7E02d6V2rBYP7sHKk7xRINqOfNMQSdiZSTsRvAwgfm33ZJ+S/IKAKX6LuR+9s2Z0y36ZPOuDd1xFwMnTKnn50CjWm1RwpB027v+mQBtT4lkb+uI8VLwill6YGnB7Q3CawEGTr2Op/IEE9NPel5RhGJnsXXm/qieRB6tLHEruRAZYXOcyZL0Jx7UhJaj7Tnahl2LjpQRUMJ/EclStYEs+BST41RVpxMHAHOwHXMKxAnL3IVBLqSKca2CVruU88m968mwzF1RfYteKkY4JKWHKFOdJiIWNHGFqdtYpiiL0ZAW6xrQi4kQz6aIclf2qkU/bq5kvMOvtJlJvwIKYclYWY3yWf4h30drfBY1ebN7A1ct4wJvGO49dFntrKGueONiNWjQWGYLjefi6DG1fuLvnCes87qGX+7Q1ysFTAK5mn6L6EJBOGbdkCQe4gZ1KovjJLx3ALV69IjH9zaaq7pE1T6TxC1qCFiGgSutfl01qVymoX96Jw8QxOaDs26SGaCduEoKN1ppWGX+cWD25olgTcjBaYOvRS1iRt74nG4n1YovONWKlPm32R2PWDCBgPNnZ6X6284sv1bzoS421CPaok35EYYD/wNK5tr9vq2FMEjc0QZvHv7Jy0Mqsrxowo9pKr+xBybFCgZeGwFHP3h1jYEZDuQbe4Pf6sw3tlJjHMV8Bjhn4f+peI2do5JJUzDkp60E6/eTP7rUhRubhbCTSbaFPCzlkJ7GWYQ+qmOf2i6mNMOmhieLRg9VTv0LL88GoeJTSCl5vSjskIA4XFw9jvEvNxFvCEYtdx5dNZV2Q1xKgOM8frM0bjw0SpemoPsYcsKJmaZdhIm5nn7GJZ8txBEQ+/fvQIhPzyOD7vbKdXwpLka8kOgUk2hjQjuDCcWLS4l/rxAi34g5cZibHvhNlFFyQ2Uvw9Z0hpja1BmZ0tjVwkKRCdUQhykh0II7pEK6rI98WbXWPVRXsDlm8YqlPs53v3jQzcjuJL62BJVsTQBuip889ldKJBi6xzu4btRdMk4gKW00N7f+hGC8wdcl4BgxH1HwbSN+HNfAmbSwjMs6CNJiVHiwGbnKpVNfJQTMQsQdi7hqSAEkc2QVIxbqp9gfxgTcNWsPy/oZIGoyjRLoQpt23VpjY4hVBDwc2fB5YuHNqNW8WcR5aAdT1QBj1ar7QL25J3TYXUZtJGcAkxnFlwIRcKKJiBV5lfK5DLa8EQU5FUJnum0ZnYs2L6K0R/JbFmWs/aq9K2CBQDxyfpPvY9gfDACnVTNagpuSacebC6TDWCPsyhwNbVAIHzg1IRRCprWR6IS+sFUR65RQNSPNUy7xX+6D0VFcfF6rt+/uKEsJ+hiIeo8ESTgfccJgoGfC22wwVnNBaIj1M236026k29s/C/LU9W7BeTJIJSbWTso4q57+wGDWeyLPO8Abdkm6v3hAqcHLiaO8Fx6X+g+QLzazPuT2bjaB7DAf6gvYmIXdvn996egW+AwJEx4qfx8CkUzgGPc9FCexatK18MurFFIcOUWaC+di9J0wlBauYSzVvPQBv+Zp+avcfFF5GMpGhAq8yioCFcLI9ZLKLdl9uGSoub4mggwHoM3skD+qhhOPH0YdrJno37BuNF0c6Tefc36dnJR6ll/Ae8t2PrI8UfV1Pr4Id1k+JLEFkCCvLMdfdeXl5oGSpyxM/wjiAEmVaxZ4nMxx0cVZbP4ZuZOzS2cffeShMxsACmmohbBTD3VFNr2FW7KUsuLfJF0JzklEho+DMqUY9xLiGl05dIoCCmAnsrTwwkplhRx6z1f++3PZTx1mR5UDyPbmPPLqdgPh6aDf0MazK7FsgQ6nGqosFu+3FibaHW23IYDGgWeFTIRSfBqbztgVv2+gVVe3WZUu+NzT8JTi0TJCzQlPKf9lCxDIY0OlcLjUyGiGXGhB3uyq7+PjxfzlwH/UC5IfA0TZ5WFk4gKo6LRzf/yCFsf7qtYWKjtRzX8C27OpD3W0xSyaT8I2yy0et1gVP13U4cmduA8D8ctFt3WT6nzlzILwEoH+y/Nbr8YxE2zykCfxhCDUCgRVrfCInUisQ6wEmSg8dmgZubcdM9M1/D1uj+q35RE2oMEW3umwP8k5F4+FqBqD4bDibFrQsx+BojqEak5f9+OcKfEySXJ06zhMKkuMXA8koO+v+WpFr64zvHHw9PSnVxg6atVZN/eB/8wQpQYDIXLUkvSQCNpUolyfPiXlDoQDS0wfnz9ijEn4XE4uKwZkLeLwiHF0LOWYAblXYLADooELxg2nMRO8rEAXqUbEx93ptKGtjKbOa02d5iIRu48Dj4TZ3OepR5z25ULKUFjKFvODsW3df52QxvsHaJmNyYv/w+mfMt5TbGOlppTicxTkYiAsceVDlnEbMhrk3n8wu3OGLATDon5sSdOA8CLWJX5WgGwYz+Yvf9KBp9H+MctM1ilt/uXZASTewitPItNqHptoYB4hLTmU4h77030WHJcmt1MTyNWnxyOOygqQgPuASL/Puak+uDXLwKF09I8d3wy5u7jR0yXOWz18IAN6RB6vhXgjGVOh/TT0Mm+0p5HjdrbOwtP1mqOjCL3UJNrqu4yqzVYDFh0wCdVxYsSwkViJeaj87UYWijckcCCmQMLBgA+LpnJJF3ZLdV2i5r8QGUNUca52P1n5lrKRD3ZPFNtoZ5Dbxb7ATgfO2mpgJ/l13lsj541PKg09fA2vQFBFWoeU2Hone3aYPDli3Nv/WKoGhU4h/1CBbrmEbCUxe9SnuD7cgTkw0zwhua5H/iTyoenAhuKblF7SnRl9IQ9MXW8ymaT/8As5v7HbuXh7VXpao4BfJrxidvywFgSl4tYskfzer7vKb8VV8uj1GgX9El4mpn3i5Xul/RfhD9GCF2LgsnCpeyhM5FnT3mIViWjazLT33CNf6578mrigfpvwy6sjFNH0DVNpuRUHEUDCezIyhCxq6wUE393u8veGOP2Qt+G04MQ4r4aJLMVFlQx8rGftaYO9DMBLqqsJAu54Fi64f89QPUI0qppkpGe7e1Lf7ZIujBVjRuCzUEn54HvsgraoyfNZZTTRr5jV2dPUPF1ZAY+PSkjAk0i3TGEmFzoeIjr3YzsafJKhbCB9NpdFgOunolFz/0xWch4B3vJqhDodf+ctQpKRP6KoGRZKCPGgJDGfnxeSEal2rnZGSakky5fiTu73pfeJEFN4NmGCRxPNhRF4XVQ2CQgSuti+kBQ15pm3tJW/Vf1ggJs0iHbT+7eBqwTP2T6EcSmKliXjgQvZ90i0KdJfgj+fMcQV0s7XkPFlDBC2wnGb2wIkte1XyEI6UuIlK2wjwhB20Y+AToA7+NedcW5HP568Bh+IuHw8pboagVVzWnF10Ep5EgnThns14Zwg4/E1DRnmt6ptWz35CV9Swk9SWjXeirLU+qPes7j/PsuB/lDIhzpi043TIw7GbMAWvjPQRyAUkd1qrPbtasFgd0K37s6WkWdnSyN4vw8q/+Y0gEMrYHFm8S9ioIgErMRhsYmSRrIsdt7M+;" vertex="1" parent="1">
          <mxGeometry x="1540" y="410" width="375" height="250" as="geometry" />
        </mxCell>
      </root>
    </mxGraphModel>
  </diagram>
</mxfile>
